<svg xmlns="http://www.w3.org/2000/svg" width="76" height="118" xmlns:xlink="http://www.w3.org/1999/xlink" xmlns:figma="http://www.figma.com/figma/ns">
  <desc>
    Created using Figma
  </desc>
  <g style="mix-blend-mode:normal" figma:type="frame">
    <g style="mix-blend-mode:normal" figma:type="frame">
      <use fill="#FFF" xlink:href="#a" transform="translate(27.71 46.41)" style="mix-blend-mode:normal" figma:type="vector"/>
      <use fill="#FFF" xlink:href="#b" transform="translate(16.773 34.203)" style="mix-blend-mode:normal" figma:type="vector"/>
      <use fill="#FFF" xlink:href="#c" transform="translate(12.89 31.87)" style="mix-blend-mode:normal" figma:type="vector"/>
      <use fill="#FFF" xlink:href="#d" transform="translate(12.547 18.168)" style="mix-blend-mode:normal" figma:type="vector"/>
      <use fill="#FFF" xlink:href="#e" transform="translate(11.89 26.714)" style="mix-blend-mode:normal" figma:type="vector"/>
      <use fill="#FFF" xlink:href="#f" transform="translate(11.737)" style="mix-blend-mode:normal" figma:type="vector"/>
    </g>
    <g style="mix-blend-mode:normal" figma:type="frame">
      <use fill="#FFF" xlink:href="#g" transform="translate(16.718 17.193)" style="mix-blend-mode:normal" figma:type="vector"/>
      <use fill="#FFF" xlink:href="#h" transform="translate(16.934 11.374)" style="mix-blend-mode:normal" figma:type="vector"/>
      <use fill="#FFF" xlink:href="#i" transform="translate(12.16 25.52)" style="mix-blend-mode:normal" figma:type="vector"/>
      <use fill="#FFF" xlink:href="#j" transform="translate(33.855 18.27)" style="mix-blend-mode:normal" figma:type="vector"/>
      <use fill="#FFF" xlink:href="#k" transform="translate(12.89 1.914)" style="mix-blend-mode:normal" figma:type="vector"/>
      <use fill="#FFF" xlink:href="#l" transform="translate(31.504 .75)" style="mix-blend-mode:normal" figma:type="vector"/>
    </g>
    <use fill="#FFF" xlink:href="#m" transform="translate(.493 .483)" style="mix-blend-mode:normal" figma:type="vector"/>
    <g style="mix-blend-mode:normal" figma:type="frame">
      <use fill="#FFF" xlink:href="#n" transform="translate(35.153 93.05)" style="mix-blend-mode:normal" figma:type="vector"/>
      <use fill="#FFF" xlink:href="#o" transform="translate(2.24 71.593)" style="mix-blend-mode:normal" figma:type="vector"/>
      <use fill="#FFF" xlink:href="#p" transform="translate(9.848 49.178)" style="mix-blend-mode:normal" figma:type="vector"/>
      <use fill="#FFF" xlink:href="#q" transform="translate(21.695 52.484)" style="mix-blend-mode:normal" figma:type="vector"/>
    </g>
  </g>
  <defs>
    <path id="a" fill-rule="evenodd" d="M12.23 8.2c-.15-.18-.08-.44.1-.56.2-.15.47-.07.58.12.16.2.1.45-.1.57-.2.15-.46.07-.57-.12zM5.7 7c-.42-.7.23-1.1 1.02-.7.46.24.7.5.57.66-.42.38-1.37.42-1.6.04zm12.56-.76c-.15-.2-.04-.7.27-1.03.3-.33.53-1.25.45-1.97-.03-.8.16-1.63.53-2.05.4-.42.47-.6.2-.5-.53.35-1.06-.34-.53-.64.2-.15.7.15 1.07.65.38.48 1.02.97 1.4 1.13.53.2.6.4.34.68-.3.3-.64.3-1.17 0-.9-.48-1.13-.07-1.02 2 .08 1.05-.1 1.5-.6 1.77-.46.27-.77.23-.92-.03zM.08 5.94c-.15-.2-.08-.46.1-.58.2-.15.47-.07.58.12.16.2.08.45-.1.57-.2.15-.47.07-.58-.12zm1.86-.05c-.15-.23-.1-.6.1-.84.24-.23.47-.23.66.07.15.23.1.6-.1.84-.24.23-.47.23-.66-.08zm5.4.1c-.16-.22 0-.68.26-1.06.3-.42.6-.53.72-.3.15.23 0 .68-.27 1.06-.3.42-.6.54-.72.3zm-1.4-.68c-.36-.4-.4-.72-.13-1 .28-.25.54-.18.9.24.33.42.36.73.1 1-.27.26-.53.18-.87-.24zm6.3.23c-.16-.2-.1-.45.1-.57.2-.15.46-.07.57.12.16.2.1.45-.1.57-.2.15-.46.07-.57-.12zm4.92-.76c-.15-.2-.07-.47.12-.58.2-.15.45-.08.56.1.16.2.08.47-.1.6-.2.14-.46.06-.58-.13zM4.64 4.02c-.16-.2-.08-.46.15-.6.22-.16.3-.4.18-.58-.12-.2-.04-.42.15-.53.2-.15.45-.08.57.1.15.2.07.47-.15.62-.23.15-.3.38-.2.57.12.2.04.43-.15.54-.18.16-.45.08-.56-.1zm8.3-.04c-.14-.24.08-1 .5-1.68.5-.87.65-1.4.38-1.67-.23-.23-.23-.46 0-.6.2-.12.84.3 1.4.9.6.65.95 1.18.73 1.18-.2.04-.6.08-.9.1-.32 0-.74.43-1 .93-.57 1.17-.8 1.33-1.1.83z"/>
    <path id="b" fill-rule="evenodd" d="M33.83 16.16c-.9-.53-.46-1.22.5-.72.8.42.83-.04.1-1.33-.4-.75-.83-2.5-1.02-4.48-.03-.57-.48-1.44-.94-1.94-1.14-1.2-.53-1.52.84-.45.68.57 1.1 1.3 1.2 2.16.13 1.02.54 3.8.73 4.9l.3.6c.46.7-.9 1.68-1.7 1.26zm-22.74-.23c-.4-.83-.08-2.58.45-2.58.3 0 .5.26.42.57-.08.3-.2.87-.2 1.2-.1.8-.45 1.27-.68.8zm16.24-.45c-.15-.2-.08-.46.1-.57.2-.15.47-.07.58.12.15.2.08.46-.1.57-.2.14-.47.07-.58-.12zm-7.6-.38c-.15-.2-.07-.46.12-.57.2-.16.46-.08.57.1.15.2.08.47-.1.58-.2.16-.47.1-.58-.1zm.77-1.14c-.1-.2.04-1.07.35-1.94.76-2.17.72-2.28-.53-1.9-.6.15-1.22.22-1.33.07-.13-.12-.62-.24-1.1-.27-1.84-.16-.73-.76 1.32-.76 1.67 0 2.16-.12 2.08-.54-.1-.83 2.66-.8 3.42.04.45.53.5.8.15 1.22-.23.3-.38.67-.34.9.2.6-.6.57-1.03-.08-.22-.38-.15-.76.3-1.25.58-.68.58-.72-.14-.76-.54-.03-.73.12-.57.47.06.26-.05.68-.32.9-.3.24-.72 1.22-.98 2.14-.5 1.8-.9 2.36-1.3 1.76zm-4.93-.76c-.15-.2-.07-.46.12-.57.17-.16.44-.08.55.1.16.2.08.47-.1.58-.2.16-.46.1-.58-.1zm23.3-.6c-.37-.47-.33-.62.23-.8.42-.16.84-.35 1-.43.6-.3.6.6-.05 1.18-.6.57-.76.57-1.17.04zm-28.7-.24c-.06-.15.1-.42.35-.65.5-.4 1.8-.06 1.9.5.08.43-1.97.58-2.24.16zm-2.46-.8c-.44-1.44.36-3.6.96-2.62.15.2.08.45-.1.6-.2.12-.3.54-.24.96.08.4 0 .83-.23.95-.2.15-.35.2-.4.1zm21.84-.84c-.15-.38-.08-.83.15-1.06.3-.3.48-.27.67.23.16.37.08.82-.15 1.05-.3.3-.5.27-.68-.23zm7.67-.2c-.15-.18-.07-.44.12-.56.2-.15.46-.07.57.12.14.2.07.45-.12.57-.2.15-.46.07-.57-.12zm2.47-.18c-.26-.3-.3-.64-.1-.76.22-.1.56.04.8.3.25.3.3.65.1.77-.23.1-.57-.04-.8-.3zm-27.55-.22c-.15-.23-.04-.65.2-.95.25-.3.33-.57.18-.57-.2 0 0-.35.38-.76.64-.73.68-.73 2.16.03.8.42 1.37.92 1.25 1.1-.16.27-.5.23-1 0-.37-.22-.72-.3-.72-.15 0 .12-.26.04-.57-.22-.3-.27-.55-.42-.6-.35 0 .08-.07.46-.14.88-.2 1-.8 1.52-1.14 1zM4.56 9.4c-.15-.2-.07-.46.12-.58.2-.15.45-.07.57.12.15.2.07.45-.12.57-.2.16-.45.08-.57-.1zm21.22-.04c-.15-.23-.1-.6.12-.84.22-.23.45-.23.64.08.15.22.1.6-.1.83-.24.23-.47.23-.66-.07zM.5 9.2c-.04-.1-.07-.34-.1-.5C.34 8.53.23 8.23.07 8c-.37-.62.6-1.87 1.18-1.53.34.23.34.45-.1.95-.43.45-.5.76-.2 1.06.3.3.3.5 0 .65-.23.15-.46.2-.46.07zM6.42 9c-.1-.2.12-.56.53-.78.46-.23.84-.23 1-.04.1.23-.12.57-.54.8-.45.22-.82.22-.98.03zm21.07-.6c-.47-.53-.28-.72.48-.6.2.04 1.1-.6 2.1-1.45.94-.83 1.9-1.4 2.12-1.3.2.16-.08.62-.6 1.08-.54.45-1.2 1.2-1.45 1.67-.23.5-.53.76-.65.64-.1-.1-.53-.03-.87.16-.5.26-.8.2-1.14-.2zm11.98.23c-.15-.2-.07-.45.12-.57.2-.15.45-.07.57.12.15.2.07.45-.12.57-.2.15-.45.07-.57-.12zM8.7 8.23c-.26-.43 1.33-1.2 1.86-.85.2.1.04.42-.34.72-.84.6-1.22.6-1.52.12zm34.54-.5c-.38-.3-.53-.62-.34-.73.53-.34 2.13.42 1.86.84-.3.5-.68.5-1.52-.12zM25.4 7.45c-.15-.23-.38-.3-.57-.2-.2.12-.4.04-.57-.15-.1-.2.12-.56.5-.75.57-.3.87-.22 1.36.3.34.4.5.8.34.92-.34.38-.8.34-1.06-.1zm13.33.03c-.12-.16.1-.6.5-.96.56-.53.75-.53 1.1-.1.6.7.1 1.13-.62.52-.4-.3-.52-.3-.33 0 .15.23.1.53-.08.65-.2.16-.46.08-.57-.1zm-27.4-.46c-.43-.7.22-1.1 1-.7.47.24.7.5.58.66-.4.38-1.35.42-1.58.04zm10.1.04c-.32-.2-.85-.27-1.2-.2-.33.12-1-.1-1.5-.53-.77-.6-.84-.87-.54-1.78.37-1.03 1.74-1.6 1.66-.73-.04.23-.23.35-.46.27-.22-.07-.18.12.08.47.27.3.34.8.2 1.02-.16.26-.12.34.14.18.23-.1.53-.07.65.16.2.3.42.3.76 0 .64-.54 1.3-.23 1.17.57-.1.8-.38.96-.98.58zm22.76-.57c-.24-.3-.5-.76-.54-1.02-.08-.27-.3-.9-.5-1.45-.75-1.86-.9-2.58-.5-2.85.24-.1.32-.38.2-.57-.1-.18-.04-.4.15-.52.2-.15.47-.08.58.1.16.2.08.47-.15.62-.23.12-.07.95.38 2.1.43 1.06.66 1.9.58 1.9-.1 0 .08.4.38.9.68 1.03.2 1.72-.57.8zM1.52 5.4c-.38-.6-.46-1.02-.2-1.18.5-.34 1.6.08 1.34.5-.12.2.03.34.34.34.3 0 .46-.1.4-.27-.13-.16.18-.6.6-1C4.44 3.44 5 2.64 5.3 2.03c.46-.87.7-1 1.3-.65.4.23.87.35 1.02.3.15-.07.34.05.38.2.04.2.5.64 1.06 1.06.53.46.87.9.76 1.1-.1.16.08.5.38.76s.45.64.34.83c-.1.2-.72-.1-1.33-.68-.57-.57-.98-1.14-.9-1.3.1-.2-.08-.4-.43-.53-.3-.1-.45-.38-.34-.6.5-.84-.3-.3-2.65 1.7-1.36 1.14-2.54 2.1-2.6 2.1-.1 0-.43-.42-.77-.92zm23.2-.07c-.13-.12-.13-.46-.05-.7.1-.25-.07-.7-.42-.98-.3-.26-.57-.83-.57-1.25 0-.72-.04-.72-.73-.1-.4.37-.8.48-.95.25-.15-.2-.07-.5.16-.6.3-.2.3-.42 0-.77-.27-.3-.27-.57-.04-.72.2-.15.45-.07.57.08.12.2.77.3 1.45.26 1.7-.1 1.97.12 1.3 1.18-.7 1-.77 1.45-.28 1.14.6-.38 1.1.7.76 1.6-.3.83-.76 1.06-1.2.6zm-12.35-.76c-.98-.7-.8-1.33.38-1.1 1.07.22 1.6.75 1.3 1.3-.35.56-.65.52-1.68-.2z"/>
    <path id="c" fill-rule="evenodd" d="M26.4 7.4l-.15-.73c-.2-1.03.38-1.14 1.14-.3.37.42.6.76.52.8-.08 0-.46.07-.8.15-.38.07-.68.1-.72.07zm14.5-.58c-.5-.95.07-1.44.72-.6.34.38.38.68.1.95-.3.3-.52.2-.82-.35zm-4-.03c-.14-.2-.06-.47.17-.62.22-.16.3-.42.2-.6-.17-.2.02-.47.33-.58.34-.12.5-.38.38-.57-.12-.2.07-.46.4-.57.36-.15.55-.46.43-.72-.06-.27.05-.8.35-1.18.27-.38.42-.9.3-1.14-.22-.65.6-1.1 1.1-.6.3.3.27.6-.1 1.05-.4.5-.4.6-.04.38.57-.34 2.47.8 2.17 1.3-.1.2-.68.07-1.25-.2-.88-.45-1.1-.45-1.52-.03-.46.45-.42.64.26 1.33.46.45.73 1 .57 1.2-.15.28-.4.24-.8-.14-.5-.48-.68-.44-1.4.28-.42.42-.8.9-.8 1.06 0 .5-.5.73-.72.35zM3.94 6.47c-.15-.23 0-.68.26-1.06.3-.42.6-.54.72-.3.15.22 0 .68-.27 1.06-.3.42-.6.53-.72.3zm27.6-.68c-.92-.92-.96-1.07-.42-1.83.54-.8 1.8-1.18 1.8-.53 0 .15-.12.27-.28.23-.4-.04-.94 1.14-.68 1.56.15.22.53.34.87.3.36-.08.66.1.66.42 0 .95-.9.87-1.94-.15zm-12.42.34c-.1-.12-.1-.46 0-.76.13-.3.1-.53-.1-.5-.8.16-1-.07-.53-.6.26-.3.34-.57.2-.57-.17 0-.1-.22.14-.53.35-.38.3-.6-.14-.98-.73-.62-.38-1.15.64-.96 1.25.26 1.52.72 1.03 1.86-.38.8-.38 1.2-.04 1.75.37.6.33.8-.28 1.1-.38.23-.8.3-.9.2zm-3.48-1.3c-.1-.15.04-.5.34-.72.38-.34.6-.3 1 .16.25.3.4.57.33.6-1.2.23-1.53.23-1.68-.03zm18.83-.15c-.35-.4-.3-.6.1-.96.47-.38.66-.3.96.27.62 1.15-.22 1.68-1.05.7zm-12.3-.12c-.46-.42.53-1.22 1.17-1 .57.24.57.16.16-.33-.38-.46-.42-.84-.12-1.37.42-.8 1.33-.95 1.45-.26 0 .22-.1.34-.3.3-.45-.15-.42.53.04.84.23.15.27.4.15.64-.16.23-.08.3.14.15.53-.34 1.03.5.53 1-.26.26-.64.22-1.13-.05-.54-.26-.88-.3-1.03-.03-.25.45-.7.5-1.05.1zm-20.2-.53c-.3-.46.27-.6 2.28-.57 1.07.04 1.9.23 1.9.42 0 .45-3.9.6-4.18.15zM14 3.85c-1-.68-.8-1.32.37-1.1 1.06.23 1.6.77 1.3 1.3-.35.57-.66.53-1.68-.2zm-7.1-.14c-.24-.37.03-.53 1.58-.87 1.14-.26 1.48.34.53.84-.93.53-1.8.53-2.1.04zM.05 3.37c-.27-.45.45-.9.95-.6.42.26.16.95-.37.95-.2 0-.42-.15-.57-.34z"/>
    <path id="d" fill-rule="evenodd" d="M17.25 17.3c0-.04-.07-.4-.15-.73-.2-1.02.38-1.14 1.14-.3.38.42.6.76.53.8-.07 0-.45.07-.8.15-.37.07-.68.1-.72.07zm4.07-.23c-.16-.2-.08-.46.1-.57.2-.16.47-.08.58.1.15.2.07.47-.1.58-.2.15-.47.08-.58-.1zm23.1 0c-.25-.46.47-.92.96-.6.42.25.15.94-.38.94-.2 0-.42-.14-.57-.33zm4.98 0c-.15-.2-.07-.46.12-.57.2-.16.45-.08.57.1.14.2.06.47-.13.58-.2.15-.45.08-.57-.1zm.95-.88c-.2-.5-.26-1.03-.15-1.2.23-.4 1.25.47 1.25 1.12 0 .9-.76.98-1.1.07zm-40 .18c-.16-.1-.08-.45.2-.76.2-.3.25-.5.06-.42-.18.08-.4-.03-.44-.26-.08-.2-.3-.57-.5-.8-.22-.27-.15-.6.2-.88.6-.5 1.2.08.8.77-.16.2 0 .68.33 1.06.52.56.52.75.1 1.1-.3.26-.64.33-.75.18zm20.08-.23c-.35-.26-.7-.72-.76-1.02-.23-1.14-.7-1.9-1.18-1.9-.62 0-1.72-1.26-1.72-1.98 0-.3.34-.87.76-1.25s.65-.8.57-1c-.1-.14-.03-.37.16-.5.2-.14.46-.06.57.13.12.15.65.34 1.18.34.62 0 .84-.2.7-.46-.5-.7-.46-1.5.03-2.12.26-.3.42-.8.38-1.02l-.1-.84c0-.2-.65-.3-1.37-.23-.76.03-1.52-.16-1.75-.46-.57-.65-1.14-.65-.87.04.24.6-.4 1.14-.98.8-.3-.2-.3-.42 0-.77.34-.4.2-.48-.83-.44-1.04.07-1.23-.04-1.15-.65.07-.37-.04-.56-.27-.45-.2.16-.45.08-.57-.1-.14-.2-.06-.47.17-.62.22-.15.3-.38.2-.57-.13-.15.06-.5.4-.76.88-.76 1.4 0 .9 1.33-.48 1.3-.3 1.52.73 1 .5-.3.84-.3 1-.05.14.23.52.34.86.3.38-.07.6.12.54.4-.04.3.07.4.3.25.23-.15.34-.34.23-.45-.3-.35.53-1.68.9-1.45.2.12.27.65.16 1.14-.2 1.14 0 1.18.98.2.83-.84 1.63-.73 1.25.18-.1.3-.08.88.1 1.26.47 1.03.5 2.14.1 2.67-.3.34-.24.68.22 1.18.64.68.64.76-.08 1.14-.42.22-.83.82-.9 1.32-.12.53-.1.87.1.8.42-.27.84.5.54.95-.15.22-.45.26-.68.1-.26-.14-.57-.3-.72-.33-.2-.04-.38-.08-.45-.12-.12 0-.04-.53.15-1.14.23-.87.2-1.17-.27-1.36-.68-.23-.6-.3-1.25.87-.38.8-.34 1.02.42 1.8.45.5.95.8 1.14.74.5-.35.8.57.34 1.14-.3.38-.23.68.38 1.25.9.84.45 1.45-.53.72zm4.5.12c-.37-.65.47-1.4.96-.9.3.3.22.56-.16.86-.38.34-.6.34-.8.04zM.04 15.9c-.27-.47 1.97-1.65 2.46-1.34.22.15.3.38.18.57-.3.53-2.43 1.14-2.66.76zm21.82-.2c-.46-.53-.27-.72.5-.6.18.03.26-.12.18-.35-.08-.27-.3-.46-.5-.46-.6 0-1.32-.73-1.1-1.1.12-.2.42-.24.65-.1.27.16.72.32 1.03.32.4 0 .58.38.58 1.06.03 1.37-.7 2.02-1.33 1.22zm10.85.23c-.1-.2.04-.54.3-.76.6-.5 1.22.07.8.72-.3.44-.83.48-1.1.03zm-18.37-.5c-.3-.3-.3-.57-.04-.9.34-.43.15-.47-.77-.35-1.13.1-2.3-.65-1.6-1.1.2-.16.47-.08.62.1.1.24.57.27 1.02.08.72-.26 2.05.12 2.58.73.12.1-.15.56-.6 1.05-.57.6-.88.72-1.22.38zm11.88-.3c-.1-.2.13-.53.54-.76.76-.38 1.56.1 1.03.68-.38.38-1.33.42-1.56.08zm10.03-.46c-.26-.5-.53-1.03-.57-1.25-.03-.2-.1-.65-.2-.95-.06-.3.13-.57.43-.57.94-.08 1.17.2.75.95-.27.53-.2.8.42 1.2.72.47.76.58.23 1-.5.42-.7.38-1.07-.38z"/>
    <path id="e" fill-rule="evenodd" d="M32.1 5.94c-.26-.65 1.15-2.2 1.72-1.87.6.34-.08 2.25-.84 2.36-.34.04-.76-.15-.87-.5zM3.76 5.86c-.15-.2-.07-.46.12-.57.2-.16.45-.1.57.1.15.2.07.46-.12.57-.2.16-.45.08-.57-.1zm15.3-.42c-.27-.2-.6-.26-.76-.15-.16.07-.4 0-.5-.2-.34-.5.8-1.3 1.36-.95.27.2.76.34 1.07.34.76 0 .72 1.02-.04 1.13-.35.08-.85-.04-1.15-.2zm30.97 0c-.15-.23-.1-.6.12-.84.22-.22.45-.22.64.08.15.23.12.6-.1.84-.24.23-.47.23-.66-.08zM4.92 4.8c-.14-.23 0-.7.28-1.07.3-.42.6-.53.72-.3.15.22 0 .68-.27 1.06-.3.4-.6.52-.72.3zm20.5 0c-.14-.12-.07-.46.16-.73.3-.38.23-.45-.42-.34-1.14.23-1.4-.84-.45-1.8.88-.9 1.83-.6 1.26.4-.27.45-.2.83.23 1.3.75.82.02 2-.77 1.17zm15.68-.35c-.34-.38-.38-.68-.1-.95.3-.3.52-.2.82.34.5.96-.07 1.45-.72.6zM9.8 3.92c-.4-.65.44-1.4.94-.9.3.3.23.56-.15.86-.4.34-.62.34-.8.04zm-6.43-.34c-.15-.23-.5-.3-.76-.2-.63.27-1.12-.45-.6-.8.24-.14.6-.07.88.12.27.23.57.42.76.42.3.04.42.42.15.65-.12.1-.3.04-.43-.2zm9.1.04c-.1-.2.13-.65.5-1 .42-.37.84-.5.96-.3.1.2-.12.65-.5 1-.4.37-.83.5-.95.3zm2.25-.08c-.26-.42 1.33-1.56 1.8-1.3.44.3-.28 1.4-1 1.53-.34.04-.68-.08-.8-.23zm6.9.1c-.14-.1 0-.56.35-.94.53-.53.53-.76.15-1.25-.26-.3-.4-.57-.34-.6 1.22-.24 1.56-.2 1.86.4.27.5.15.92-.57 1.68-.98 1.07-1.06 1.1-1.44.72zm-4.58-.44c-.12-.15.1-.6.5-.95.56-.53.75-.53 1.1-.12.6.73.1 1.14-.6.54-.43-.3-.55-.3-.36 0 .16.22.12.53-.07.64-.18.16-.45.1-.56-.1zm30.52-.27c-.35-.38-.38-.68-.12-.95.3-.3.53-.2.84.34.5.95-.08 1.45-.72.6zm-47.4-1c-.2-.48-.2-1-.05-1.2.4-.38 1.22.07.96.53-.12.2-.04.42.2.57.44.27.14.95-.43.95-.2 0-.53-.38-.68-.84zm8.76.43L8 2.02 9.07.92C10.24-.34 10.9-.3 10.4 1c-.2.45-.35.98-.35 1.13-.03.54-.22.57-1.13.23z"/>
    <path id="f" fill-rule="evenodd" d="M19.58 28.85c-.23-.27-.38-.5-.3-.53 1.06-.23 1.93-.12 2.28.3.22.27.38.5.3.53-1.06.23-1.94.12-2.28-.3zm14.88.1c-.42-.52.2-2.23.72-1.93.23.15.3.57.2.95-.16.42-.05.65.26.6.26 0 .53.16.6.35.12.54-1.36.57-1.78.04zm7.14 0c-.2-.86-.08-1.74.2-1.8.44-.17.56 1.55.14 1.8-.15.13-.3.13-.34 0zm4.25-.63c-.5-.38-1.1-.73-1.37-.73-.26 0-.68-.24-.95-.54-.22-.3-.64-.5-.95-.38-.6.27-1.1-.46-.56-.8.22-.15.64-.04.94.2.3.26.57.37.57.22 0-.38 2.8 1.14 3.38 1.8.73.86-.03 1-1.05.22zm-39.63-.16c-.57-.3-1.02-.4-1.02-.3 0 .1-.27-.04-.65-.3-.34-.3-1-.54-1.4-.54-.46 0-.84-.15-.88-.38-.2-.64 2.17-.45 2.77.23.35.38.8.6 1.07.5.58-.23 1.98.8 1.5 1.1-.2.1-.8 0-1.38-.3zm18.33-.76c-.5-.6 0-1.06.6-.57.24.23.62.34.85.3.2-.07.34.04.34.27-.12.5-1.37.54-1.8 0zm-5.08-.15c-.15-.2-.08-.46.1-.57.2-.15.47-.08.58.1.15.2.08.47-.1.58-.2.16-.47.08-.58-.1zm3.2-1c-.28-.33-.58-.48-.7-.37-.1.12-.4 0-.68-.23-.3-.22-.77-.26-1.2-.07-.37.2-.94.34-1.24.34-.8-.04-.9-.8-.1-.87l1.7-.23c.6-.08 1.25.07 1.48.38.38.42.56.42 1.13-.12.42-.38.73-.57.76-.5 0 .1.08.47.16.8.18 1-.74 1.6-1.34.88zm27.16.32c-.1-.16.16-.65.6-1.14.47-.5.77-.88.66-.92-2.1-.37-3.54-1.1-3.13-1.5.3-.3.8-.2 1.67.26.73.38 1.4.65 1.56.6.15-.03.46.27.65.65.3.55.22.85-.27 1.27-1 .83-1.44 1.06-1.75.8zm-25.43-.8c-.1-.2.12-.65.53-1.03.42-.38.76-.53.76-.38 0 .2.18.15.4-.07.54-.55 2.4.48 2.02 1.1-.1.18-.57.1-1.06-.24-.8-.5-.95-.5-1.63.23-.46.4-.88.6-1.03.37zm4.48-.5c-.1-.2.08-.45.42-.57.34-.15.53-.5.42-.76-.3-.83.38-.95 1.06-.2.57.66.57.74 0 1.23-.76.6-1.6.76-1.9.3zm12.34.23c-.04-.2-.04-.53 0-.72.04-.15-.12-.53-.34-.8-.2-.23-.42-.95-.46-1.56-.04-.6-.3-1.37-.6-1.75-.27-.34-.54-.83-.6-1.14-.05-.26-.2-.68-.36-.95-.15-.22-.1-.53.08-.64.2-.15.46-.08.6.15.12.18.12.37 0 .37-.14 0 .16.57.65 1.22.45.67.87 1.4.9 1.62.08.8.65 2.1.88 2.1.1 0 .87-.43 1.63-.96 1.87-1.25 2.2-.57.4.8-.77.6-1.72 1.44-2.06 1.86-.38.42-.68.6-.72.38zm-39.97-.9c-.15-.2-.08-.47.1-.58.2-.15.47-.08.58.1.15.2.08.47-.1.58-.2.16-.47.08-.58-.1zm-1.18-.43c-.38-.64.84-1.78 1.33-1.3.27.28.15.62-.34 1.07-.53.46-.8.54-1 .23zm20.16.04c-.15-.18-.08-.45.15-.6.23-.15.3-.38.2-.57-.12-.2-.05-.42.14-.53.2-.15.46-.08.57.1.14.2.07.47-.16.62-.23.15-.3.38-.2.57.12.18.05.4-.14.52-.2.16-.46.08-.57-.1zm-10.3-.4c-.4-.65.2-1.22.8-.73.27.23.43.57.3.76-.25.46-.8.42-1.1-.04zm12.2-.35c-.3-.46 1.17-1.67 1.67-1.37.2.12.3.42.2.6-.4.58-1.65 1.15-1.87.77zm-4.22-.38c-.25-.46.47-.9.96-.6.42.26.15.94-.38.94-.2 0-.42-.14-.57-.33zm-15.17-.42c-.27-.42 1.33-1.18 1.86-.84.18.13.03.43-.35.74-.84.6-1.22.6-1.52.1zm43.65 0c-.15-.23-.1-.6.1-.84.24-.2.47-.2.66.1.15.22.1.6-.1.83-.24.23-.47.23-.66-.08zm-36.82-.38c-.07-.1.2-.53.6-.87.96-.84.92-1.3-.07-1.83-.58-.26-.7-.53-.42-.8.26-.26.75-.15 1.55.42 1.06.75 1.14.94.72 1.66-.26.46-.45 1-.5 1.18 0 .42-1.66.6-1.9.23zm-4.78-.8c-.38-.76.2-1.4.6-.68.16.18.5.3.77.18.26-.08.8.07 1.2.34.77.6.8.6-.94.72-.86.08-1.36-.1-1.62-.57zm22.1-1.6c-.4-.5-.35-.64.3-.98.9-.54 1.32 0 .68.86-.46.6-.53.6-1 .12zm20.26-.22c-.27-.46.45-.9.95-.6.4.26.14.94-.4.94-.18 0-.4-.16-.56-.35zM2.88 18.43c-.64-1.2.15-1.75.9-.6.58.87.5 1.4-.14 1.4-.2 0-.5-.34-.76-.8zm26.04.42c-.1-.2.1-.53.53-.76.76-.4 1.56.1 1.03.67-.38.38-1.33.42-1.56.08zm-16.66-.34c-.16-.18-.08-.45.1-.56.2-.15.47-.08.58.1.15.2.08.47-.1.58-.2.15-.47.08-.58-.1zm36.02-.03c-.15-.23-.12-.6.1-.84.24-.22.47-.22.66.08.15.24.1.62-.12.85-.22.22-.45.22-.64-.08zM7.66 17.7c-.1-.18-.1-.56.04-.83.15-.23.12-.3-.1-.2-.24.17-.62 0-.85-.25-.26-.3-.3-.65-.1-.76.4-.27 2.46 1.82 2.08 2.16-.35.38-.8.35-1.07-.1zm6.23-.14c-.05-.12-.05-.57-.05-1 0-1.17.04-1.17.84-.75.4.24.67.58.56.8-.16.2-.42.24-.65.12-.22-.15-.3-.07-.14.15.1.23.07.5-.15.65-.18.1-.37.15-.4.04zm28.15-.38c-.26-.3-.3-.65-.1-.76.22-.12.56.03.8.3.25.3.3.65.1.76-.23.12-.57-.04-.8-.3zM2 16.6c-.14-.18-.07-.45.12-.56.2-.16.46-.08.57.1.14.2.07.47-.12.58-.2.15-.46.08-.57-.1zm35.3 0c-.14-.18-.07-.45.12-.56.2-.16.46-.08.57.1.14.2.07.47-.12.58-.2.15-.46.08-.57-.1zm5.55-.26c-.84-.57-.84-.65-.23-1.33.7-.75 1.37-.64 1.07.24-.17.38.14.57 1.05.64.68.08 1.25.3 1.25.5 0 .65-2.24.65-3.15-.04zm4.3-.1c-.12-.24.1-.58.52-.8.46-.24.84-.24 1-.05.1.22-.13.56-.54.8-.46.22-.84.22-1 .03zm-42.3-.96c-.26-.3-.3-.65-.1-.76.22-.12.56.03.8.3.25.3.3.65.1.76-.23.1-.57-.04-.8-.3zm10.4.15c-.18-.27.92-1.45 1.22-1.22.27.2 2.77-1.05 2.77-1.43 0-.2-.42-.76-.95-1.22-1.1-.95-1-1.3.45-1.22.87.04 1.06.23 1.14 1.07.02.57.25 1.3.48 1.56.34.38-.04.72-1.78 1.56-2.55 1.17-3.08 1.33-3.34.9zm19.4-.57c-.53-.5-1-.8-1-.7 0 .13-.25 0-.55-.25-.3-.26-.57-.33-.57-.22 0 .15-.35.08-.76-.15-.42-.23-.7-.6-.53-.8.15-.23.53-.2 1.02.15.46.27 1.48.5 2.28.46 1.44-.08 2.12.3 1.4.76-.3.2-.3.42 0 .76.8.95-.26.95-1.3 0zm14.8.6c-.15-.18-.07-.45.12-.56.2-.16.45-.08.57.1.15.2.07.47-.12.58-.2.15-.45.08-.57-.1zm-48.2-.37c-.27-.4.53-1.04 1.2-1.04.5.04.66.8.2.8-.2 0-.5.15-.76.3-.23.15-.54.12-.65-.07zm3.98-.96c-.26-.3-.3-.65-.1-.76.22-.12.56.03.8.3.25.3.3.65.1.76-.23.1-.57-.04-.8-.3zm6-.46c-.45-.5-1.1-.84-1.36-.76-.27.1-.57.04-.7-.2-.14-.18-.37-.26-.56-.14-.18.1-.4.04-.56-.2-.15-.22-.38-.3-.57-.18-.2.1-.4.04-.53-.15-.15-.2-.07-.46.12-.57.2-.16.45-.08.6.15.16.23.38.3.57.2.2-.13.42-.05.57.18.15.27.5.27 1 0 .86-.5 1.17-.33 2.23 1.15 1 1.37.42 1.82-.8.53zm32.5-.15c-.23-.38.03-.53.68-.42.2.05.23-.1.08-.33-.38-.65.95-2.44 1.4-1.98.3.3.12.83-.6 1.78-1.14 1.44-1.22 1.52-1.56.95zM20.8 13c-.27-.3-.3-.65-.12-.76.23-.12.57.03.8.3.27.3.3.65.1.76-.2.1-.56-.04-.78-.3zm1.3-.23c-.16-.23-.13-.6.1-.84.23-.23.46-.23.65.08.15.24.1.62-.12.84-.23.23-.45.23-.64-.07zm2.26-.38c-.1-.16.08-.5.38-.77s.5-.6.38-.76c-.1-.2-.03-.42.16-.57.22-.12.57.15.8.57.56 1.02 1.4 1 1.32-.08-.04-.5 0-1.04.12-1.26.15-.2.26-.88.3-1.5.1-1.16 1.06-2.42 1.4-1.85.12.18 0 .83-.3 1.36-.3.57-.53 1.14-.57 1.22 0 .1-.04.22-.04.3-.03.04-.06.84-.1 1.8l-.04 1.7-1.82.04c-1 .03-1.86-.08-1.98-.23zm5.74.03c-.16-.2-.08-.46.1-.57.2-.16.47-.08.58.1.15.2.08.47-.1.58-.2.15-.47.08-.58-.1zm-25.74-.3c-.3-.58-.1-1.45.27-1.45.22 0 .57-.16.8-.3.26-.16.64 0 .87.26.3.34.3.6.07.76-.2.15-.45.08-.6-.15-.16-.23-.42-.3-.6-.15-.2.1-.28.34-.16.53.12.2.04.42-.15.53-.18.15-.4.1-.5-.04zm29-.2c-.34-.34-.34-.57 0-1 .42-.48.6-1.05.84-2.34.1-.77.45-.9 1.44-.62.83.2.83.23-.27 1.37-.64.64-1.1 1.52-1.02 1.9.15.87-.42 1.25-1 .68zm4.7-.23c-.26-.4 1.37-1.6 2.47-1.78 1.03-.2 1.26.45.35.95-.42.23-.76.3-.76.2 0-.13-.42.06-.9.37-.55.34-1.04.45-1.15.26zm-29.6-1.18c-.15-.2-.08-.45.1-.57.2-.15.47-.07.58.12.16.2.08.45-.1.57-.2.15-.47.07-.58-.12zm7.97-.3c-.1-.15-.83-.27-1.55-.27-.73-.03-1.3-.2-1.22-.4.1-.58 2.85-.55 3.3.02.42.5-.07 1.1-.53.65zm25.77-.08c-.1-.22.12-.57.54-.8.45-.22.83-.22.98-.03.12.24-.1.58-.53.8-.46.23-.84.23-1 .04zm4.18 0c-.1-.22-.38-.34-.57-.22-.14.1-.48-.08-.7-.35-.3-.34-.3-.6-.1-.76.2-.14.5-.02.62.2.15.2.5.3.8.2.64-.27 1.1.5.6.98-.22.23-.45.23-.64-.04zM24.7 9.2c-.15-.4-.07-.84.16-1.07.3-.3.5-.27.68.23.15.38.08.83-.15 1.06-.3.3-.5.27-.7-.23zm15.64.18c-.15-.2-.07-.45.12-.57.2-.14.45-.06.57.13.15.2.07.45-.12.57-.18.15-.44.07-.56-.12zm-21.55-.6c-.17-.16-.2-.46-.1-.73.2-.45-.86-1.67-1.43-1.7-.6-.08-.46-.54.15-.65.34-.04 1.06.38 1.6.95.83.87.9 1.14.5 1.7-.28.35-.58.54-.73.43zm22.38-.46c-.2-.34-.15-.5.27-2.32.15-.68.45-1.33.6-1.44.6-.35.76.83.3 1.97-.26.6-.5 1.22-.5 1.37-.06.46-.52.76-.67.42zM23.9 7c-.14-.28-.3-.77-.3-1.07 0-.3-.15-.8-.3-1.03-.2-.27-.2-.7-.07-.88.34-.53 1.06-.03.8.57-.08.26.03.68.26.9.22.23.25.43.1.43-.2 0-.1.22.12.53.3.34.3.6.07.76-.2.15-.5.04-.7-.23zm13.37.1c-.27-.45.46-.9.95-.6.42.26.15.95-.38.95-.2 0-.42-.16-.57-.35zM12.6 6.7c-.15-.24-.12-.62.1-.85.24-.23.47-.23.66.08.15.22.1.6-.12.83-.22.23-.45.23-.64-.07zm22.1.1c-.16-.23.07-.8.44-1.3.38-.5.6-1.1.54-1.36-.2-.57.53-1 .83-.5.16.23.1.65-.14.92-.23.26-.34.57-.27.64.1.08-.12.57-.5 1.07-.42.53-.8.72-.9.53zm4.5-.84c-.15-.2-.07-.45.12-.57.2-.16.46-.08.57.1.14.2.07.46-.12.58-.2.15-.46.07-.57-.12zm-24.06-.64c-.45-.3-.83-.46-.83-.3 0 .1-.26.03-.56-.24-.3-.26-.46-.6-.34-.83.1-.2.45-.15.8.15.3.23.83.5 1.13.53.8.12 1.4.76 1 1.03-.24.15-.73-.04-1.2-.34zm12.68.26c-.15-.2-.08-.45.1-.57.2-.14.47-.06.58.13.15.2.08.45-.1.57-.2.15-.47.07-.58-.12zm1.52 0c-.15-.2-.08-.45.1-.57.2-.14.47-.06.58.13.15.2.08.45-.1.57-.2.15-.47.07-.58-.12zM18.1 4.44c-.23-.45-.23-.83-.04-1 .23-.1.57.13.8.55.23.44.23.82.04.97-.23.12-.57-.1-.8-.53zm7.97-.23c-.6-.63-.76-1.1-.53-1.32.27-.26.68 0 1.22.73 1.02 1.4.5 1.87-.7.6zm4.37.58c-.2-.3 1.55-1.9 2.12-1.9.88 0 .57.8-.6 1.5-.72.4-1.4.6-1.52.4zm-10.2-1.86c-.16-.2-.1-.45.1-.57.2-.15.46-.07.57.12.16.2.1.45-.1.57-.2.15-.46.07-.57-.12zm-2.18-.3c-.15-1.1-.15-1.52.16-2.13.15-.4.45-.58.68-.47.2.15.2.54-.04 1-.23.4-.3.9-.2 1.1.13.18.05.4-.18.56-.2.1-.42.1-.42-.08zm6.68-.12c-.15-.22-.1-.6.12-.83.23-.23.45-.23.64.07.16.23.12.6-.1.84-.24.23-.47.23-.66-.08zm9.9.04c-.14-.2-.06-.45.13-.57.18-.15.45-.07.56.12.16.18.08.44-.1.56-.2.15-.46.07-.58-.12zm1.53 0c-.15-.2-.08-.45.1-.57.2-.15.47-.07.58.12.15.18.08.44-.1.56-.2.15-.47.07-.58-.12zm-13.3-.38c-.14-.2-.06-.45.13-.57.2-.16.45-.08.57.1.15.2.07.46-.12.58-.2.15-.45.07-.57-.12zm-3.44-.42c-.15-.22-.1-.6.1-.83.24-.22.47-.22.66.08.14.23.1.6-.12.84-.23.23-.46.23-.65-.08z"/>
    <path id="g" fill-rule="evenodd" d="M17.52 36.67c-.15-.2-.07-.46.12-.57.2-.15.45-.08.57.1.16.2.08.47-.1.58-.2.15-.46.08-.58-.1zm-.83-1.37c-.35-.88.37-1.52.94-.84.34.42.3.65-.15 1.03-.47.37-.62.33-.8-.2zm-3-.9c-.27-.5.45-.93 1.02-.58.22.15.3.1.2-.12-.17-.23.06-.68.48-1.06.38-.34.6-.88.53-1.14-.1-.27-.04-.6.2-.76.22-.12.56.15.75.64.27.73.08 1.07-1.06 2.1-1.48 1.32-1.8 1.44-2.13.9zm9.9-.77c-.15-.2-.08-.46.1-.57.2-.16.47-.08.58.1.15.2.08.47-.1.58-.2.15-.47.08-.58-.1zm4.55 0c-.15-.2-.07-.46.12-.57.2-.16.45-.08.57.1.15.2.07.47-.12.58-.2.15-.45.08-.57-.1zm1.9-.76c-.15-.2-.08-.46.1-.57.2-.16.47-.08.58.1.16.2.08.47-.1.58-.2.15-.47.08-.58-.1zm-19.02-.42c-.15-.23-.1-.6.12-.84.23-.22.45-.22.64.1.14.22.1.6-.12.82-.23.23-.46.23-.65-.07zm13.37.1c-.08-.18.07-.86.37-1.58.38-.88.65-1.18.92-.92.25.27.2.8-.2 1.6-.65 1.22-.84 1.37-1.1.9zm8.3-.44c-.14-.18-.07-.45.12-.56.2-.16.46-.08.57.1.14.2.07.47-.12.58-.2.15-.46.08-.57-.1zm-12.52-.75c-.15-.2-.07-.46.12-.57.2-.16.45-.08.56.1.16.2.08.47-.1.58-.2.15-.46.08-.58-.1zm11-.38c-.14-.2-.07-.46.12-.57.2-.16.46-.08.57.1.15.2.08.47-.1.58-.2.15-.47.08-.58-.1zm-22.4-.73c-.1-.22.05-.57.32-.8.3-.26.64-.3.76-.1.1.22-.04.56-.3.8-.3.26-.65.3-.77.1zm6.85-.34c-.12-.1-.23-.95-.23-1.82 0-.92-.23-1.8-.46-1.98-.68-.53-1.82-.9-1.7-.57.03.15-.08.3-.3.34-.2.04-.35-.15-.27-.42.03-.26-.16-.72-.46-.95-.44-.38-.75-.34-1.47.16-.6.38-1.02.45-1.18.22-.15-.2.12-.57.54-.8.7-.38.63-.53-1.46-3.23-1.17-1.52-2.35-2.73-2.62-2.66-.68.22-1.02-.54-.34-.8.46-.2.5-.42.08-1.6-.65-1.8-1.1-4.18-1.1-5.4.07-2.9.45-5.82.83-6.2.22-.22.4-.57.4-.76 0-.15.54-1.1 1.2-2.05C7.87.24 8.4-.18 8.63.05 8.9.33 8.68.9 8 1.8 5.3 5.35 5.07 11.9 7.43 17.14c1.78 3.95 5.3 7.18 9.15 8.48 1.82.58 2.4 1.4.83 1.22-.8-.07-.86.08-.86 1.4 0 1.45-.38 2.18-.9 1.68zm-4.18-.84c-.15-.2-.07-.45.12-.57.2-.16.45-.08.56.1.16.2.08.46-.1.58-.2.15-.46.07-.58-.12zm12.9 0c-.14-.2-.07-.45.12-.57.2-.16.46-.08.57.1.15.2.08.46-.1.58-.2.15-.47.07-.58-.12zm13.52-.8c-.72-.6-1.1-1.17-.87-1.3.2-.14.9.24 1.6.85 1.6 1.45.9 1.83-.73.47zm-30.2-.34c-.17-.2-.1-.45.1-.57.2-.15.46-.07.57.12.15.2.07.45-.1.57-.2.15-.47.07-.58-.12zm32.36.2l-.1-.5c-.05-.2-.2-.5-.35-.76-.15-.23-.12-.53.1-.68.2-.12.43-.16.43-.04.05.1.1.34.12.53.04.15.2.46.34.72.16.22.12.52-.1.68-.2.1-.43.15-.43.03zm-20.65-1c-.3-.53.6-.83 1.83-.6 1.4.23 1.52-.12.35-1.1-.84-.76-.95-1.03-.6-1.6.56-.9 1.5-.88 1.36 0-.07.42.2 1.06.58 1.48.76.88 2.4.72 4.7-.5 1.64-.83 2.4-.34.95.62-2.16 1.4-8.58 2.62-9.15 1.7zm14.5-.26c-.38-.6 0-1.82.54-1.7.98.22 1.1.67.38 1.36-.38.34-.8.5-.92.34zM1.8 26.3c-.26-.28-.45-.35-.45-.2 0 .15-.34.1-.75-.1-.42-.24-.7-.58-.57-.8.15-.2.57-.16 1.06.1.44.27.94.46 1.1.5.45 0 .7.5.37.72-.2.1-.53 0-.76-.23zm2.4.07c-.1-.2-.15-.42-.04-.42.5-.12.84-.23 1.48-.53.42-.16.88-.12 1.1.1.3.3.27.5-.22.7-.34.15-.76.15-.88 0-.1-.12-.45-.04-.72.18-.3.27-.53.27-.72-.03zm3.42-.76c-.12-.18-.08-.37.07-.45.5-.27 1.25-.1 1.36.23.1.45-1.18.64-1.44.23zm21.67.04c-.16-.2-.08-.45.1-.57.2-.15.46-.07.57.12.16.18.08.44-.1.56-.2.15-.46.07-.58-.12zm9.82-.4c-.1-.2-.1-.4.04-.4.15 0 0-.3-.3-.64-.95-1.1-1.48-2.32-1.1-2.55.34-.23 1.6 1.4 1.7 2.2.04.23.2.6.35.88.16.23.12.53-.07.65-.2.15-.46.07-.6-.15z"/>
    <path id="h" fill-rule="evenodd" d="M24.52 29.94c-.76-.83-.68-2.13.1-2.13.66 0 1.34 2.1.9 2.56-.2.2-.62 0-1-.42zm7.6.38c-.16-.2-.08-.45.1-.57.2-.15.46-.07.58.12.15.2.07.45-.12.57-.2.15-.45.07-.57-.12zm9.86 0c-.15-.2-.08-.45.1-.57.2-.15.47-.07.58.12.16.2.08.45-.1.57-.2.15-.47.07-.58-.12zm-12.56-.38c-.27-.5 1.2-1.3 1.78-.95.23.14.3.1.2-.16-.16-.2.33-1.14 1.13-2.05 1.56-1.88 3.23-5.22 3.42-6.93.15-1.22.1-4.8 0-7.07-.08-.72-.42-1.8-.8-2.36-.42-.65-.57-1.33-.42-1.86.15-.46.1-.72-.08-.6-.18.1-1.2-.77-2.27-1.95-2.24-2.58-4.9-4-8.7-4.67-2.84-.54-3.45-.57-4.32-.27-.3.1-1.52.4-2.62.67-2.32.54-5.2 1.75-5.54 2.28-.12.2-.72.73-1.33 1.14-1.1.76-1.14.76-1.4.1-.12-.37-.57-1.06-.95-1.47-1.03-1.14-.23-1.5.83-.35l.84.92 1.96-1.33c1.06-.7 2.16-1.5 2.47-1.7.45-.43 1.14-.55 4.63-.9C19.02.42 19.8.26 20 .15c.57-.38 4.56.08 6.3.68 1.83.65 2.2.7 2.1.3-.08-.18.07-.33.26-.37.23-.08.38.04.38.26 0 .2 1.33 1.72 2.92 3.36l2.88 3 .84-1.1c.42-.6.95-1 1.18-.88.2.16-.08.8-.6 1.53-.96 1.22-.96 1.34-.43 2.63.3.76.5 1.37.38 1.37-.06 0 .13.42.43.9.34.5.57 1.07.53 1.23-.15.8.08 1.67.38 1.6.2-.08.3.07.27.26 0 .22-.15.33-.3.25-.38-.1-.42.35-.34 2.5.04.93-.2 2.18-.5 2.8-.3.6-.37 1.17-.18 1.28.2.15.07.65-.23 1.1-.34.5-.53 1.07-.5 1.22.08.2 0 .34-.15.34s-.8.8-1.44 1.78c-1.2 1.8-3.53 4.1-4.17 4.1-.2 0-.43-.15-.58-.34zm-10.75-.87c-.6-.6-.56-2.02.04-2.55.7-.57 1.08-.1.8.9-.1.5-.03 1 .2 1.15.46.27.23.95-.3.95-.16 0-.46-.2-.73-.45zM2.13 28.5c-.16-.2-.73-.3-1.22-.3-.48-.04-.9-.2-.9-.4 0-.4 2.66-.48 2.92-.06.27.45-.4 1.1-.8.76zm41.37-.46c-.15-.2-.08-.45.1-.57.2-.15.47-.07.58.12.15.18.08.44-.1.56-.2.15-.47.07-.58-.12zm-21.3-.57c-.4-.3-.53-.6-.3-.72.23-.15.68 0 1.06.27.42.3.54.6.3.72-.22.15-.68 0-1.06-.27zm-10.17-.53c-.83-.9-.8-1.33.12-2.17.8-.72.87-.6.8.84-.04.43.1.92.34 1.07.4.27.17.95-.36.95-.15 0-.57-.3-.9-.68z"/>
    <path id="i" fill-rule="evenodd" d="M29.3 12.38c-.8-.88-.7-2.5.15-2.5.34 0 .53.25.45.63-.07.4.08 1.04.3 1.42.54 1.03-.1 1.33-.9.46zm-9.57-.2c-.57-.45-.6-.64-.27-1.02.38-.38.65-.34 1.26.23 1.2 1.1.38 1.77-1 .78zm12.56-.22c-.65-.7-.65-.8-.05-1.7.73-1.12 1.4-1 1.1.18-.1.4 0 .98.23 1.25.38.48.23 1.02-.34 1.02-.15 0-.57-.35-.95-.76zm8.76.03c-.15-.2-.08-.46.1-.58.2-.15.47-.07.58.12.16.2.08.45-.1.57-.2.16-.47.08-.58-.1zm-14.42-.35c-.12-.23.04-.57.34-.83.45-.38.5-.6.1-1.03-.67-.85-.7-1.87-.1-2.4.45-.4.6-.35.72.03.42 1.4.57 2.55.3 2.78-.15.16-.26.58-.26.88 0 .72-.76 1.1-1.1.57zm-15.94-.42c-.16-.2-.08-.45.1-.57.2-.15.46-.07.58.12.15.2.07.45-.12.57-.2.15-.45.07-.56-.12zm24.36-.45c-.83-.46-.87-1.6-.1-2.24.45-.38.6-.35.8.22.1.42.33 1 .52 1.33.53 1.02-.08 1.36-1.22.68zm-13.02-.95c-.6-.9-.6-1.03.04-1.7.76-.85 1.3-.66 1.03.4-.1.42 0 1 .23 1.26.38.48.23 1.02-.37 1.02-.12 0-.54-.46-.92-1zm2.6.53c-.55-.72-.5-2.1.06-2.58.68-.57 1.18.22.6.9-.3.4-.26.65.16 1 .3.26.46.6.34.8-.26.5-.76.4-1.17-.12zm-10.1-.6c-.4-.4-.66-.88-.66-1.1 0-.43 1.52-1.9 1.56-1.53.1 1 .04 2.96-.1 3.12-.13.1-.47-.12-.8-.5zm5.26.33c-.15-.2-.07-.46.12-.58.2-.15.45-.07.57.12.14.2.06.45-.13.57-.2.16-.45.08-.57-.1zm26.95.03c-.1-.23-.68-.34-1.3-.26-.56.07-1.24-.08-1.54-.35-.3-.22-.6-.38-.68-.3-.03.04-.2.04-.3.04-.1-.04-.34-.08-.57-.12-.2 0-.38-.15-.38-.3V8.3c0-.14.27 0 .65.27.34.3.68.5.76.46.03-.08.15-.1.22-.08.04.04.7.08 1.4.16.73.08 1.37.16 1.45.2.04.03.27.1.46.15.42.04.58.57.27.83-.1.12-.3.04-.42-.15zm-29.37-.68C16.43 8.8 16.3 7.7 17.1 7c.47-.37.47-.56-.03-1.32-.45-.72-.5-1.06-.15-1.7.53-1.03 1.25-.8 1.33.4.04.5.1 1.1.2 1.3.06.23 0 .95-.16 1.64-.2.8-.17 1.44.14 1.8.6.75-.12 1-1.06.33zm12.48-.7c-.68-.82-.03-3.14.76-2.65.23.15.23.38 0 .7-.3.33-.2.67.34 1.17.76.68.7 1.33-.15 1.33-.3 0-.7-.23-.94-.54zm-10.74-.78c-.34-.8-.34-1.1.2-1.6.56-.57.64-.57.83.1.15.4.38 1 .57 1.34.2.36.22.77.1.9-.52.48-1.28.18-1.7-.73zM32.48 8c-.57-.76-.34-2.32.38-2.32.38 0 .53.3.46.84-.08.46.07.9.3 1.07.42.25.15.94-.34.94-.2 0-.53-.27-.8-.54zm17.84-.57c-.23-.45-.23-.83-.04-1 .23-.1.57.13.8.55.23.45.23.83.04 1-.23.1-.57-.13-.8-.55zm-47.6 0c-.15-.2-.07-.45.12-.57.2-.15.45-.07.57.12.16.2.08.45-.1.57-.2.15-.46.07-.58-.12zm33.3-.1c-.54-.73-.5-2.1.07-2.6.67-.57 1.17.23.56.95-.34.42-.27.6.38.95.4.23.68.58.57.8-.33.5-1.17.42-1.6-.1zM3.85 6.7c-.1-.22.04-.56.3-.8.3-.25.65-.3.77-.1.1.23-.04.57-.3.8-.3.26-.65.3-.77.1zm8.7-.45c-.57-.64-.6-.9-.23-1.74.6-1.32 1.25-.98 1.36.73.07 1.7-.23 2-1.14 1.02zm2.35.08c-.83-.9-.8-1.33.12-2.17.8-.72.88-.6.8.84-.04.42.1.9.34 1.06.42.27.2.95-.34.95-.15 0-.57-.3-.9-.67zm6.73-.1c-.5-.55-.57-.96-.34-1.34.48-.8 1.05-.85 1.16-.17.04.3.2.84.34 1.18.38 1-.38 1.2-1.17.32zm26.83-1.27c-.68-.72-1.1-1.37-.87-1.48.18-.15.86.34 1.55 1.03.68.73 1.1 1.37.87 1.5-.2.14-.87-.35-1.56-1.04zm-23.87.46c-.62-.6-.58-1.64.03-2.17.64-.5 1.06-.2.75.57-.1.3 0 .76.23 1.07.73.82-.22 1.32-1 .52zm3.25-.88c-.3-.72-.3-1.06.08-1.52.57-.68 1.2-.4.87.38-.1.35 0 .8.23 1.1.42.5.2 1-.42 1-.18 0-.48-.42-.75-.96zm3.1.38c-1-1.2-.67-3.34.4-2.66.3.2.26.42-.04.8-.37.46-.3.65.27 1.1.53.38.6.65.3.95-.3.32-.53.28-.9-.18zM5.4 4.82c-.1-.24.04-.58.3-.8.3-.27.65-.3.76-.12.12.23-.03.57-.3.8-.3.26-.64.3-.76.1zM.78 4c-.26-.46.46-.92.96-.62.4.27.15.95-.38.95-.2 0-.42-.15-.57-.34zm18.6-.8c-.56-.65-.6-.92-.26-1.72.46-.95 1-1.2 1.37-.64.1.2-.05.76-.32 1.3-.34.64-.38.94-.07.9.5-.04.8.65.35.8-.2.08-.68-.23-1.06-.65zm14.9.07c-.8-.88-.85-1.76-.13-2.33.6-.5 1.22.08.8.72-.15.22-.04.68.23.98.72.88-.15 1.48-.9.6zm-27-.43c-.15-.2-.08-.45.1-.57.2-.15.47-.07.58.12.15.2.08.45-.1.57-.2.14-.47.06-.58-.13zm14.5-.6c-.34-.8-.3-1.07.26-1.72.8-.87 1.33-.68 1.07.38-.1.42 0 1 .23 1.26.23.3.3.63.16.75-.54.53-1.3.23-1.72-.7zm23.5.53c-.84-.5-.5-1.1.5-.84.37.1 1.32-.2 2.04-.6.76-.5 1.4-.7 1.52-.47.15.18-.5.8-1.4 1.33-1.9 1.14-1.75 1.1-2.67.57zM.02 2.1c-.1-.22.1-.56.53-.8.46-.22.84-.22 1-.03.1.23-.13.58-.54.8-.46.23-.84.23-1 .04zm3.87-.25c-1.44-.77-.9-1.45.53-.73.6.34 1.03.76.9.95-.25.46-.14.5-1.43-.22z"/>
    <path id="j" fill-rule="evenodd" d="M2.63 8.94c-.35-.38-.57-1-.42-1.33.12-.33.08-.48-.1-.37-.2.12-.46.04-.6-.2-.16-.22-.4-.3-.58-.18-.6.38-1.22-1.25-.76-2.1.57-1.02 1.1-.64.83.62-.12.68-.04.95.22.76.23-.12.53-.04.65.2.15.18.53.3.83.18.84-.33 1.37.12.84.77-.34.42-.3.68.2 1.22.33.37.48.82.33.94-.38.4-.72.3-1.44-.5zm4.63.08c-.76-.84-.84-1.64-.2-2.28.35-.34.35-.57 0-.92-.64-.64-.56-1.63.12-2.2.53-.46.53-.57 0-1.14C6.46 1.68 6.46.8 7.1.24c.65-.54 1.03-.16 1.03 1 0 .48.23.9.5.94.22 0 .7.07 1.02.07.3.04.53.38.5.8-.05.38.1 1.03.3 1.37.45.87-.27 1.33-1.03.68-.34-.26-.53-.87-.42-1.37.12-.68.04-.8-.3-.5-.76.66-.9 2.2-.27 2.48.46.16.5.3.16.66-.58.57-.62 2.1-.1 2.4.43.26.16.94-.33.94-.15 0-.57-.3-.9-.68z"/>
    <path id="k" fill-rule="evenodd" d="M30.3 24.65c-.45-.83.12-2.5.77-2.32.57.2.57 2.7 0 2.9-.23.07-.57-.2-.76-.58zM.86 23.45c-.38-.43-.5-.85-.3-.96.2-.13.65.1 1 .48.37.42.48.84.3.95-.2.1-.65-.1-1-.5zm16.17.1c-.95-.65-1.1-1.75-.26-2.43.72-.6 1.3-.2 1.06.76-.1.42 0 1 .23 1.3.64.8-.08 1.05-1.03.37zm2.1-.08c-.8-.87-.84-1.74-.08-2.35.68-.57 1.5-.12.98.53-.26.34-.23.72.15 1.25.88 1.26 0 1.75-1.06.57zm6.4-.8c-.68-.75-.7-1.93-.03-2 .44-.05 1.66 2.04 1.43 2.46-.27.46-.72.3-1.4-.45zm22.36-.56c-.4-.3-.53-.6-.3-.72.23-.15.68 0 1.06.27.42.3.53.6.3.72-.22.15-.68 0-1.06-.26zM.06 21.17c-.27-.46.45-.92.95-.6.42.25.16.94-.37.94-.2 0-.42-.15-.57-.34zm42.5-.04c-.1-.2.3-.6.92-.95.68-.34 1.2-.42 1.37-.2.1.2-.3.62-.9.96-.7.34-1.23.42-1.38.2zM3.1 20.4c-.27-.46.45-.92.94-.6.42.25.15.94-.38.94-.2 0-.4-.15-.57-.34zm1.9-.38c-.27-.46.45-.92.94-.6.42.25.15.94-.38.94-.2 0-.42-.15-.57-.34zm18.7-.46c-.83-.46-.9-1.98-.15-2.6.6-.52 1.1 0 .8.8-.1.32.04.8.34 1.08.33.26.48.6.37.8-.26.4-.57.4-1.37-.08zm2.17-.34c-.57-.65-.6-.92-.27-1.75.46-.95 1.44-.9 1.06.04-.07.27.08.84.35 1.26.92 1.3-.03 1.67-1.13.46zm-22.28-.3c-.9-1.03-1.1-1.53-.77-1.76.2-.1.68.3 1.14.92.87 1.18.53 1.94-.38.83zm42.04-.43c-.15-.2-.07-.46.12-.58.2-.15.45-.07.57.12.15.2.07.45-.12.57-.18.16-.44.08-.56-.1zm.76-1.1c-.1-.24.04-.58.3-.8.3-.27.65-.3.77-.12.1.23-.04.57-.3.8-.3.26-.65.3-.77.1zm-38.7-.8c-.4-.42-.5-.84-.32-.96.2-.1.65.12 1 .5.37.42.48.83.3.95-.2.1-.65-.13-1-.5zm39.84-.77c-.15-.2-.07-.45.12-.57.2-.15.45-.07.56.12.16.2.08.45-.1.57-.2.15-.46.07-.58-.12zm-46.5-.57c-.26-.3-.3-.64-.1-.76.22-.1.56.04.8.3.25.3.3.65.1.77-.23.1-.57-.04-.8-.3zm44.6-.95c-.15-.18-.07-.44.12-.56.2-.15.45-.07.57.12.15.2.07.45-.12.57-.18.15-.44.07-.56-.12zm-41-.75c-.33-.38-.6-.83-.52-1.02.04-.2-.12-.73-.38-1.18-.27-.5-.38-.88-.23-.88.13 0 .05-.22-.18-.53-.3-.38-.34-.6-.04-.8.2-.1.42-.15.42-.03.04.12.08.35.1.54.05.15.28.64.55 1.14.26.45.38.83.26.83-.14 0 .13.5.58 1.12.87 1.25.46 1.94-.53.83zm36.83 0c-.15-.2-.08-.45.1-.57.2-.15.47-.07.58.12.15.2.08.45-.1.57-.2.15-.47.07-.58-.12zm6.45 0c-.15-.2-.07-.45.1-.57.2-.15.47-.07.58.12.16.2.08.45-.1.57-.2.15-.47.07-.58-.12zm-45.17-.38c-.15-.2-.07-.45.12-.57.2-.15.45-.07.57.12.15.2.07.45-.12.57-.2.14-.45.06-.57-.13zm39.86-1.14c-.14-.2-.07-.45.12-.57.2-.15.46-.07.57.12.14.2.07.45-.12.57-.2.15-.46.07-.57-.12zm-7.96-.34c-.23-.4 1.17-1.83 1.93-2.06.8-.23.53.5-.6 1.44-.6.5-1.22.8-1.33.6zM8.8 10.84c-.13-.2-.13-.38.03-.38.15 0-.12-.4-.57-.9-.46-.5-.7-1.03-.5-1.15.42-.23 1.7 1.07 1.82 1.86.12.7-.45 1.1-.8.57zm-3.4-1.1c-.14-.2-.07-.45.12-.57.2-.15.46-.07.57.12.14.2.07.45-.12.57-.2.15-.46.07-.57-.12zM38.44 9c-.15-.2-.07-.46.12-.58.2-.15.45-.08.57.12.15.2.07.45-.12.57-.2.16-.45.08-.57-.1zm6.07.03c-.1-.23.04-.57.3-.8.3-.27.65-.3.77-.1.1.2-.04.56-.3.8-.3.25-.65.3-.77.1zM16.04 8.6c-.15-.18-.08-.45.1-.56.2-.15.47-.08.58.1.15.2.08.47-.1.6-.2.14-.47.06-.58-.13zm7.97 0c-.14-.18-.07-.45.12-.56.2-.15.46-.08.57.1.14.2.07.47-.12.6-.2.14-.46.06-.57-.13zm2.3 0c-.17-.18-.1-.45.1-.56.2-.15.45-.08.57.1.15.2.07.47-.12.6-.2.14-.45.06-.56-.13zm14-.37c-.27-.46.45-.9.94-.6.42.26.15.94-.38.94-.2 0-.42-.15-.57-.34zm1.9-.38c-.28-.46.45-.9.94-.6.42.26.15.94-.38.94-.2 0-.42-.16-.57-.35zM12.42 6.3c-.42-.8-.64-1.6-.45-1.68.38-.27 2.35 2.62 2.05 2.96-.5.46-.8.2-1.6-1.3zm20.3.8c-.37-.62.5-2.52.96-2.06.2.23.2.72 0 1.37-.43 1.1-.62 1.22-.96.7zm6.84 0c-.15-.2-.08-.47.15-.62.23-.15.3-.38.2-.57-.12-.18-.05-.4.14-.52.2-.15.46-.08.57.1.16.2.08.47-.15.62-.23.15-.3.38-.2.57.13.2.05.42-.14.53-.2.16-.46.08-.57-.1zm-12.9-.4c-.16-.18-.08-.45.1-.56.2-.15.46-.08.58.1.15.2.07.47-.12.58-.2.16-.45.08-.57-.1zm-9.04-.22c-.1-.87-.2-1.18-.45-1.78-.38-.84-.16-2.06.34-1.83.23.1.38.6.4 1.14 0 .54.17 1.23.32 1.5.2.26.1.68-.12.9-.22.23-.45.27-.5.08zm5.62-.53c-.15-.2-.08-.46.1-.57.2-.15.47-.08.58.1.15.2.08.47-.1.58-.2.16-.47.08-.58-.1zM36.88 4.8c-.12-.22.1-.56.53-.8.46-.22.84-.22 1-.03.1.23-.12.57-.54.8-.45.23-.83.23-.98.04zm-15.9-1.9C19 .9 19.03-.12 21 1.8c.73.7 1.4 1.22 1.57 1.18.15-.07.26 0 .26.2 0 .15.15.45.3.72.16.23.16.53-.03.64-.2.12-1.14-.6-2.13-1.63zm6.37 1.38c-.2-.27-.8-.84-1.37-1.22-1.78-1.1-.76-1.4 1.1-.3 1 .57 1.67.83 1.52.6-.15-.22 0-.6.27-.83 1.06-.88.95.26-.12 1.25-.9.88-1.17.95-1.4.5zM11.1 4.05c-.15-.2-.07-.46.12-.57.2-.15.45-.08.57.1.14.2.06.47-.13.58-.2.16-.45.08-.57-.1zm3.38-.15c-.38-.3-.53-.6-.34-.72.53-.35 2.12.4 1.86.83-.3.5-.68.5-1.52-.1zm19.78-.6c-.16-.2-.08-.47.1-.58.2-.15.47-.08.58.1.15.2.08.47-.1.58-.2.16-.47.08-.58-.1zm5.3 0c-.14-.2-.07-.47.12-.58.2-.15.46-.08.57.1.16.2.08.47-.1.58-.2.16-.47.08-.58-.1zM13 2.9c-.15-.18-.08-.45.1-.56.2-.15.47-.08.58.1.16.2.08.47-.1.58-.2.16-.47.08-.58-.1zm3.72-1.32c-.15-.38-.08-.84.15-1.07.3-.3.5-.25.7.24.14.38.06.84-.17 1.07-.3.3-.5.27-.68-.22zm14.88-.2c-.15-.18-.08-.45.15-.6.2-.1.38-.1.38.04 0 .1.27.04.57-.23.3-.28.57-.35.57-.2 0 .15.23.08.53-.15.38-.3.6-.34.8-.04.1.2.15.43.04.43-.6.15-1 .26-1.18.34l-.46.15c-.2.04-.5.2-.76.34-.22.16-.53.12-.64-.07zM24 1.02c-.14-.18-.07-.45.12-.56.2-.15.46-.08.57.1.14.2.07.47-.12.58-.2.15-.46.08-.57-.1z"/>
    <path id="l" fill-rule="evenodd" d="M.08 1.4C-.07 1.23 0 .97.18.85.4.7.66.77.77.96c.16.2.08.45-.1.57-.2.15-.47.07-.58-.12zm4.56-.37c-.16-.2-.08-.45.1-.57.2-.15.46-.07.58.12.15.2.07.45-.12.57-.18.15-.45.07-.56-.12zM3.12.65c-.15-.2-.08-.46.1-.57.2-.15.47-.08.58.1.15.2.08.47-.1.6-.2.14-.47.06-.58-.13z"/>
    <path id="m" fill-rule="evenodd" d="M39.37 113.63c-.15-.38-.08-.84.15-1.06.3-.3.5-.27.68.22.15.37.08.83-.15 1.06-.3.3-.5.26-.68-.23zm-4.4-2.77c-.27-.54-.12-1.26.22-1.26.45-.04.64 1.07.22 1.33-.2.1-.38.08-.46-.08zm.3-6.16c-.15-.2-.08-.46.1-.57.2-.16.47-.08.58.1.15.2.08.47-.1.58-.2.16-.47.1-.58-.1zm3-11.9c-.38-.9-.04-6.2.38-6.2.5 0 .72 5.9.22 6.4-.26.25-.45.18-.6-.2zm-23.2-2.24c-.22-.38.23-.57 1.37-.54.53 0 .95.2.95.38 0 .42-2.06.54-2.33.16zm-4.85-.3c-.12-.2-.57-.27-.95-.16-.38.1-.84 0-1-.23-.3-.53.77-.95 1.4-.57.28.2.8.3 1.15.34.38 0 .7.2.7.38.02.5-1.04.73-1.3.23zm-9.27-2.3c-.5-.1-.9-.37-.94-.6-.1-.53 1.64-.72 2.13-.23.6.6-.1 1.1-1.18.84zm27.1-3.8c-.15-.18-.07-.45.12-.56.2-.15.45-.08.57.1.15.2.07.47-.1.58-.2.16-.47.08-.58-.1zm-9.86-.37c-.16-.2-.1-.47.1-.58.2-.15.46-.08.57.1.15.2.08.47-.1.58-.2.15-.47.08-.58-.1zm1.13-.73c-.12-.23.03-.57.3-.8.3-.27.64-.3.76-.12.1.23-.05.57-.32.8-.3.27-.64.3-.75.12zm1.5-1.18c-.37-.62.17-1.27.8-1.04.3.12.47.08.35-.1-.1-.16.12-.62.5-.96 1.3-1.18 1.17 0-.12 1.25-.8.8-1.36 1.1-1.52.84zm17.47-1.15c-.15-.2-.07-.46.12-.57.2-.15.45-.08.57.1.14.2.06.47-.13.58-.2.15-.45.08-.57-.1zm-14.72-1.8c-.16-.18.22-.94.8-1.62.6-.73 1.17-1.14 1.28-.92.12.2-.22.96-.83 1.65-.57.72-1.14 1.1-1.25.9zm12.03-.52c-.14-.23-.1-.6.12-.84.23-.24.46-.24.65.07.15.23.1.6-.12.83-.22.23-.45.23-.64-.07zm-20.83-1.1c-.15-.2-.08-.46.1-.57.2-.16.47-.08.58.1.16.2.08.47-.1.58-.2.15-.47.08-.58-.1zm59.97-3.04c-.15-.2-.07-.47.12-.58.2-.16.45-.08.57.1.15.2.07.47-.12.58-.18.15-.44.08-.56-.1zM20.46 72.4c-.1-.23.04-.57.3-.8.3-.26.65-.3.77-.1.1.22-.04.56-.3.8-.3.25-.65.3-.77.1zm11.4-.42c-.16-.2-.08-.45.1-.57.2-.15.46-.07.57.12.16.2.08.45-.1.57-.2.15-.46.07-.58-.12zm19.3-2.85c-.4-.3-.52-.6-.3-.72.24-.15.7 0 1.07.27.42.3.53.6.3.72-.22.15-.68 0-1.06-.27zm-24.62-.57c-.15-.2-.08-.45.1-.57.2-.14.47-.06.58.13.15.2.08.45-.1.57-.2.15-.47.07-.58-.12zm40.57-2.96c-2.23-1.98-4.3-3.35-7.35-4.87-1.48-.76-2.62-1.52-2.5-1.7.22-.4.87-.2 3.98 1.32 3.42 1.64 3.9 1.98 6 4.1 2.3 2.36 2.2 3.2-.12 1.15zm2.14-4.07c-.27-.3-.3-.65-.1-.76.2-.12.55.03.78.3.27.3.3.64.12.75-.23.12-.57-.03-.8-.3zm-29.46-1.33c-.26-.46.46-.9.95-.6.42.26.16.94-.38.94-.2 0-.4-.15-.57-.34zM66.2 58.7c-.72-.6-1.14-1.18-.9-1.3.18-.1.94.24 1.62.84.72.57 1.1 1.14.9 1.26-.17.15-.93-.23-1.62-.8zm-2.1-1.52c-.14-.2-.06-.46.13-.57.2-.14.45-.07.57.12.15.2.07.46-.12.57-.2.15-.45.07-.57-.12zm-29.2-.38c-.16-.2-.1-.46.1-.57.2-.15.46-.08.57.1.15.2.08.47-.1.58-.2.16-.47.1-.58-.1zm28.08-.38c-.16-.2-.08-.46.1-.57.2-.15.47-.08.58.1.15.2.08.47-.1.58-.2.15-.47.08-.58-.1zm-23.95-1.26c-.46-1.14-.04-2.4.75-2.4 1.03 0 1.1.92.23 2.1-.63.8-.78.87-.97.3zm8.76-.64c-.16-.2-.08-.46.1-.57.2-.15.46-.08.58.1.15.2.07.47-.12.58-.2.15-.45.08-.57-.1zm-14.85-.8c-.42-.65.2-1.22.8-.72.27.23.42.57.3.76-.26.45-.8.42-1.1-.04zm1.22-1c-.12-.18.1-.75.45-1.24.42-.54.8-.73.95-.5.12.2-.07.76-.45 1.26-.42.45-.8.68-.95.5zm-6.9-.52c-.13-.23.06-.5.44-.6.4-.12 1.08-.4 1.53-.54 1.33-.53 1.44.26.15.95-1.32.7-1.78.73-2.12.2zm10.65-.42c-.75-1.14-.3-1.82.54-.76.5.68.68.76 1.02.34.23-.26.46-.6.46-.76.03-.2.1-.3.22-.3h.42c.15 0 .08.23-.15.5-.23.22-.42.64-.42.83-.03.23-.14.38-.3.38-.18 0-.48.16-.75.3-.27.17-.68-.06-1.03-.52zm7.4-.1c-.5-.5-.68-1-.5-1.15.2-.12.73.2 1.2.68.48.5.67 1 .48 1.15-.2.12-.72-.2-1.17-.68zm-14.6-.96c-.16-.2-.08-.46.1-.57.2-.16.46-.08.58.1.15.2.07.47-.12.58-.2.15-.45.08-.57-.1zm5-.65c-.38-.38.8-2.5 1.22-2.24.53.34.45.64-.3 1.63-.4.5-.8.76-.92.6zm7.14-1.25c-.8-.8-1.3-1.56-1.1-1.68.23-.15 1.02.42 1.78 1.22.8.8 1.3 1.56 1.1 1.67-.22.15-1.02-.42-1.78-1.2zm7.17.83c-1.52-.8-2.5-1.67-2.24-2.05.07-.15.8.1 1.55.65.76.53 1.63.83 1.9.76.64-.26.95.4.38.84-.3.27-.8.23-1.6-.2zm-17.84-.1c-.42-.66.18-1.23.8-.73.26.22.4.57.3.76-.27.45-.8.4-1.1-.04zm18.63-1.1c-.15-.2-.08-.47.1-.58.2-.16.47-.08.58.1.17.2.1.47-.1.58-.2.15-.46.08-.57-.1zm-27.1-.9c-.53-.52-.6-1.66-.12-1.97.2-.1.62.2.96.7.46.75.5.98.08 1.32-.34.27-.6.27-.9-.04zm22.5-.3c-.4-.64.2-1.2.8-.7.27.2.42.56.3.75-.26.45-.8.4-1.1-.04zm-18.74-.83c-.28-.65-.2-1 .25-1.37.84-.64 1.33 0 .88 1.18-.5 1.26-.73 1.3-1.14.2zm28.45.3c-.26-.3-.3-.64-.1-.76.22-.1.56.04.8.3.25.3.3.66.1.77-.23.1-.57-.04-.8-.3zm-29.8-.57c-.14-.2-.07-.45.12-.57.2-.15.46-.07.57.12.15.2.08.45-.1.57-.2.15-.47.07-.58-.12zm30-1.14c-.16-.18-.08-.44.1-.56.2-.15.46-.07.58.12.15.2.07.45-.12.57-.18.15-.44.07-.56-.12zm-32.27-1.13c-.15-.2-.08-.45.1-.6.24-.12.32-.46.2-.73-.26-.64.46-1.14.8-.6.15.22.08.64-.15.9-.23.27-.3.58-.2.7.12.1.05.33-.18.45-.2.14-.46.06-.57-.13zm13.25-.03c-.12-.2-.08-.38.07-.46.5-.27 1.26-.1 1.37.23.1.46-1.18.65-1.44.24zm14.57-.3c-1.06-.7-1.3-1.5-.38-1.3.95.23 2.32 1.3 2.1 1.63-.27.46-.54.42-1.72-.34zm-33.17-.43c-.27-.48.64-.9 1.52-.7.34.03.6.3.6.5 0 .52-1.82.7-2.12.2zm37.2-.02c-.16-.23-.16-.54-.04-.65.1-.1.03-.46-.2-.76-.23-.27-.3-.5-.15-.5s.07-.22-.15-.53c-.3-.38-.35-.6-.04-.8.6-.38 1.02.08.95 1.03-.03.5.08 1.1.3 1.37.28.34.28.6 0 .87-.3.32-.48.28-.67-.02zm-10.1-.16c-.04-.1-.08-.34-.1-.5-.05-.18-.2-.48-.36-.75-.15-.23-.1-.53.12-.7.18-.1.4-.14.4-.02.04.1.08.34.12.53.04.15.2.46.34.72.15.23.12.53-.1.7-.2.1-.43.14-.43.02zm-29.68-.87c-.15-.23 0-.68.26-1.06.32-.43.62-.55.73-.32.16.23 0 .7-.26 1.07-.3.4-.6.53-.72.3zm42.85-.8c-.1-.2-.6-.27-1.14-.2-.5.13-1.02 0-1.14-.22-.34-.57.72-.95 1.6-.57.34.15.76.3.9.3.5.08.73.54.35.77-.2.15-.46.07-.57-.08zm1.86-.07c-.15-.23-.1-.6.1-.84.24-.23.47-.23.66.07.15.24.1.62-.1.85-.24.23-.47.23-.66-.07zm-43.23-.7c-.12-.22.04-.56.3-.8.3-.25.65-.3.76-.1.1.23-.05.57-.3.8-.32.26-.66.3-.77.1zm29.95-.07c-.16-.2-.12-.6.1-.82.24-.23.47-.23.66.07.15.23.1.6-.12.84-.23.22-.45.22-.64-.1zM16.4 38.68c-.6-.76-.04-1.45.7-.84.33.27 1.05.5 1.58.5s1.03.15 1.1.37c.1.57-2.92.54-3.38-.03zm22.06-.73c-.5-.6-.23-1.9.34-1.55.45.3.8 1.7.42 1.92-.16.12-.5-.07-.76-.38zM16.6 36.46c-.16-.38-.08-.84.14-1.06.3-.3.5-.27.7.23.14.38.06.83-.16 1.06-.3.3-.5.26-.7-.24zM31 36.08c-.16-.38-.08-.84.15-1.06.3-.3.5-.27.68.22.15.38.08.84-.15 1.07-.3.3-.5.28-.68-.22zm28.16.2c-.15-.2-.08-.46.1-.58.2-.15.47-.08.58.12.16.2.08.45-.1.57-.2.14-.47.06-.58-.13zm2.58-.96c-.9-.65-2-.84-2.88-.46-.34.16-.84.2-1.07.04-.6-.38 0-1.02.74-.83.37.07.94-.04 1.32-.3.54-.43.88-.35 2.13.5.82.52 1.4 1.1 1.28 1.28-.27.42-.65.38-1.52-.23zm-28-.2c-.16-.18-.1-.45.1-.56.2-.15.46-.08.57.1.15.2.08.47-.1.58-.2.16-.47.08-.58-.1zm17.45 0c-.14-.18-.07-.45.12-.56.2-.15.46-.08.57.1.14.2.07.47-.12.58-.2.16-.46.08-.57-.1zm-12.74-.75c-.23-.46-.23-.84-.04-1 .23-.1.57.13.8.54.22.47.22.85.03 1-.22.12-.57-.1-.8-.53zM11.73 34c-.57-.66-.5-1.2.2-1.2.5 0 1.13 1.46.75 1.68-.15.12-.6-.1-.95-.5zm24.3.37c-.16-.2-.08-.46.1-.57.2-.15.47-.08.58.1.16.2.1.47-.1.58-.2.16-.46.08-.57-.1zm5.3-1.9c-.14-.2-.07-.46.12-.57.2-.15.46-.08.57.1.16.2.08.47-.1.58-.2.16-.47.08-.58-.1zm6.08-1.14c-.14-.2-.06-.46.13-.57.2-.15.45-.08.57.1.15.2.07.47-.12.58-.2.16-.45.08-.57-.1zm-13.95-.3c-.27-.54-.12-1.26.22-1.26.46-.04.65 1.07.23 1.33-.2.12-.38.08-.45-.07zm-17.62-.65c-.38-.3-.83-.53-.98-.57-.2 0-.3-.1-.3-.22v-.46c0-.15.18-.07.4.16.24.22.66.34.92.26.53-.23 1.52.84 1.03 1.14-.2.12-.65-.03-1.07-.3zm12.95.15c-.16-.23-.12-.6.1-.84.24-.23.47-.23.66.07.15.23.1.6-.12.84-.23.24-.45.24-.64-.07zm10.66-.72c-.15-.18-.07-.45.12-.56.2-.15.45-.08.57.1.15.2.07.47-.12.58-.18.15-.44.08-.56-.1zm2.8-.64c-.33-.38-.37-.68-.1-.95.3-.3.53-.18.83.35.5.95-.07 1.45-.72.6zm17.32.27c-.15-.2-.08-.46.1-.57.2-.15.47-.08.58.1.16.2.08.47-.1.58-.2.15-.47.08-.58-.1zm-41.7-.27c-.13-.1.02-.64.36-1.18.42-.64.73-.8 1.03-.5.27.28.15.62-.38 1.15-.42.42-.87.68-1.02.53zm40.45-.6c-.52-.88-.45-1.45.3-1.83.4-.23.73-.3.73-.2 0 .12.42-.07.9-.37.58-.38 1-.46 1.15-.23.23.34-1.1 1.33-1.67 1.3-.7-.08-1.13.37-.75.83.27.34.27.57.04.72-.2.15-.5.04-.7-.23zm-27.25-.3c-.4-.66.2-1.23.8-.73.27.23.42.57.3.76-.26.44-.8.4-1.1-.05zm-9.83-1.87c-.15-.2-.07-.47.12-.58.2-.15.45-.08.57.1.16.2.08.47-.1.58-.2.15-.46.08-.58-.1zm-7.25-.43c-.4-.65.2-1.22.8-.72.27.23.42.57.3.76-.26.46-.8.43-1.1-.03zm22.02 0c-.16-.23-.13-.6.1-.84.23-.22.46-.22.65.08.15.24.1.62-.12.85-.22.22-.45.22-.64-.08zm6.86.04c-.15-.18-.08-.45.1-.56.2-.15.47-.08.58.1.15.2.08.47-.1.58-.2.15-.47.08-.58-.1zm10.25-.37c-.14-.2-.07-.46.12-.57.2-.15.46-.08.57.1.14.2.07.47-.12.58-.2.15-.46.08-.57-.1zM34 24.37c-.57-.57-.6-1.7-.08-2 .5-.32 1.3 1.7.84 2.15-.16.16-.5.12-.76-.15zm28.2-.07c-.42-.3-.53-.6-.3-.73.22-.15.68 0 1.06.27.42.3.53.6.3.72-.23.16-.68 0-1.06-.26zm-50.86-.76c-.42-.3-.53-.6-.3-.73.22-.14.68 0 1.06.28.4.3.53.6.3.72-.23.15-.68 0-1.06-.26zm29.45 0c-.26-.3-.3-.65-.1-.76.22-.12.56.03.78.3.27.3.3.65.12.76-.23.1-.57-.04-.8-.3zm-2.85-.95c-.15-.2-.07-.47.12-.58.2-.16.45-.08.57.1.16.2.08.47-.1.58-.2.15-.46.08-.58-.1zm4.94 0c-.15-.2-.08-.47.1-.58.2-.16.47-.08.58.1.15.2.08.47-.1.58-.2.15-.47.08-.58-.1zm15.64-.1c-.5-.26-1.22-.45-2.58-.67-.08-.04.5-.73 1.32-1.56 1.56-1.6 2.74-1.7 1.26-.12-.53.57-.7 1.03-.46 1.14.23.07.72.37 1.1.64.8.57.27 1.06-.64.57zm-41.83-1.05c-.15-.2-.08-.46.1-.57.2-.16.47-.08.58.1.15.2.08.47-.1.58-.2.15-.47.08-.58-.1zm19.32-.8c-.16-.23-.13-.6.1-.84.23-.22.46-.22.65.1.15.22.1.6-.12.82-.22.23-.45.23-.64-.07zm2.3.04c-.15-.2-.07-.47.12-.58.2-.16.45-.08.57.1.14.2.06.47-.13.58-.2.15-.45.08-.57-.1zm2.66-.4c-.15-.18-.07-.45.12-.56.18-.16.45-.08.56.1.16.2.08.47-.1.58-.2.15-.46.08-.58-.1zm9.83-.8c-.16-.22-.12-.6.1-.83.23-.23.46-.23.65.08.15.22.12.6-.1.83-.24.23-.47.23-.66-.07zm-36.03-.72c-.15-.2-.08-.45.1-.57.2-.14.47-.06.58.13.16.2.08.45-.1.57-.2.15-.47.07-.58-.12zm9.87-1.86c-.1-.2.1-.64.5-1 .4-.37.83-.48.94-.3.12.2-.1.66-.5 1-.4.38-.83.5-.94.3zm35.76-.26c-.27-.3.75-2.47 1.2-2.47.73 0 .7.67-.1 1.66-.46.57-.95.95-1.1.8zm-7.3-.5c-.1-.23.05-.57.3-.8.3-.26.66-.3.77-.1.1.22-.04.56-.3.8-.3.25-.65.3-.76.1zm-40.23-.42c-.15-.2-.07-.45.12-.57.18-.15.44-.07.56.12.15.18.07.44-.12.56-.2.15-.45.07-.57-.12zm46.7-.38c-.16-.2-.1-.45.1-.57.2-.16.46-.08.57.1.16.2.08.46-.1.58-.2.15-.47.07-.58-.12zm-42.94-.4c-.15-.24-.38-.32-.57-.2-.2.1-.42.03-.53-.16-.15-.2-.08-.45.1-.57.2-.15.47-.07.62.16.15.2.38.3.57.18.2-.12.42-.04.53.15.15.2.08.45-.1.57-.2.15-.47.07-.62-.15zm-3.38-.74c-.15-.2-.07-.45.12-.57.2-.15.45-.07.57.12.15.2.07.45-.12.57-.2.15-.45.07-.57-.12zm41 .04c-.12-.23.03-.57.3-.8.3-.26.65-.3.76-.1.12.22-.03.56-.3.8-.3.25-.64.3-.75.1zm1.13-1.56c-.15-.2-.07-.45.12-.57.2-.15.45-.07.57.12.15.2.07.45-.12.57-.2.15-.45.07-.57-.12zm-34.42-.26c-.2-.73-.08-1.68.23-1.64.2 0 .33.27.25.57-.07.3.04.5.2.46.14-.08.37.04.48.23.12.2-.1.38-.45.45-.38.05-.68 0-.72-.06zm23.8-.12c-.16-.2-.08-.45.1-.57.2-.15.47-.07.58.12.15.2.08.45-.1.57-.2.15-.47.07-.58-.12zm-25.1-.42c-.14-.22-.37-.3-.56-.2-.2.13-.42.05-.53-.14-.16-.2-.08-.45.1-.57.2-.16.47-.08.62.14.14.23.37.3.56.2.2-.12.4-.04.53.15.14.18.06.44-.13.56-.2.15-.45.07-.6-.16zm10.3-.72c-.16-.2-.08-.45.1-.57.2-.14.46-.06.58.13.15.2.07.45-.12.57-.2.15-.45.07-.57-.12zm-12.53-.38c-.15-.2-.08-.45.1-.57.2-.15.47-.07.58.12.16.2.1.45-.1.57-.2.15-.46.07-.57-.12zm34.08-.95c-.1-.3-.06-.8.1-1.06.18-.28.33-.62.33-.77 0-.2.1-.3.3-.3.27 0 .3.1.23.68-.04.16-.04.54 0 .92.12.84-.68 1.25-.95.53zm-32.2-.6c-.4-.65.44-1.4.94-.92.3.3.22.57-.16.88-.37.35-.6.35-.8.04zm25.87.1c-.45-.4-.3-.83.46-1.25.42-.2.83-.23.95-.04.26.42-1.06 1.64-1.4 1.3zm11.32-.5c-.13-.18-.1-.4.06-.48.46-.27 1.8-.08 2 .27.28.4-1.8.64-2.07.22zm-31.1-.7c-.15-.2-.08-.47.1-.58.2-.15.47-.08.58.1.15.2.08.47-.1.58-.2.16-.47.08-.58-.1zm21.63-.4c-.22-.3.2-.75 1.18-1.32.88-.5.85.46-.07 1.06-.5.34-.98.45-1.1.26zm-1.1-1.05c-.15-.23 0-.7.27-1.07.3-.42.6-.53.72-.3.15.23 0 .68-.27 1.06-.3.4-.6.52-.72.3zm-17.5-.84c-.15-.2-.07-.46.12-.57.2-.16.45-.1.57.1.15.2.07.46-.12.57-.2.16-.45.08-.56-.1zm11.4-.38c-.16-.2-.08-.46.1-.57.2-.14.46-.07.58.12.16.2.08.46-.1.57-.2.15-.46.07-.58-.12zm10.96-.04c-.35-.53 2.84-2.05 3.33-1.56.27.27.08.5-.64.8-.58.2-1.38.57-1.76.76-.45.23-.8.27-.95 0zm-17.05-.72c-.42-.46-.53-.8-.27-1 .38-.22.57 0 .5.62-.04.15.15.23.4.2.55-.05.9.64.4.8-.2.06-.65-.2-1.03-.62zm-10.7-.2c-.16-.37-.08-.83.15-1.05.3-.3.5-.27.68.22.15.37.08.83-.15 1.06-.3.3-.5.26-.68-.23zm9.18-1.32c-.15-.2-.07-.46.1-.57.2-.15.47-.08.58.1.17.2.1.47-.1.58-.2.17-.46.1-.57-.1zm12.15-.38c-.15-.2-.08-.46.15-.6.2-.12.38-.12.38.03 0 .1.24.04.54-.2.38-.3.6-.33.8-.03.1.2.15.42.04.42-.12.04-.35.07-.5.1-.2.05-.5.2-.76.35-.23.15-.53.1-.64-.08zm2.84-.5c-.38-.98-.2-1.55.46-1.33.53.15.72 1.67.27 1.97-.23.15-.54-.15-.73-.65zM35.27.92c-.15-.2-.08-.46.1-.57.2-.15.47-.08.58.1.15.2.08.47-.1.58-.2.15-.47.08-.58-.1zm-6.15-.5c-.23-.34-.15-.38 1-.4.4-.05.7.1.67.3-.16.45-1.42.52-1.68.1z"/>
    <path id="n" fill-rule="evenodd" d="M1.02 23.95L0 22.9l.23-5.3c.1-2.92.34-5.47.53-5.62.87-.95 1.02 2 .42 7.83-.27 2.37-.2 2.7.5 3.35.86.84 1.13.88 2.12.35.5-.27.64-.73.57-1.6C4 17.57 3.34 1.07 3.53.54c.6-1.6.95.26 1.18 7.07.16 4.04.46 9.13.65 11.33l.34 3.96-1.03 1.05c-1.3 1.33-2.35 1.33-3.65 0z"/>
    <path id="o" fill-rule="evenodd" d="M33.86 32.37c-.38-1-.04-8.9.38-8.82.5.15.72 8.48.23 8.97-.27.27-.46.2-.6-.15zM10.6 19.57c-1.15-.35-.92-1.04.3-1 2.3.1 3.8.38 3.87.72.1.45-2.9.6-4.18.26zm5.08-.05c-.3-.5-.08-.6 2.77-1.33 6.2-1.6 9.34-6.43 11.58-17.72.22-1.07.8-.2.72 1.1-.15 2.13-1.67 7.72-2.54 9.3-1.93 3.6-2.8 4.7-4.78 6.13-2.54 1.88-7.2 3.4-7.74 2.52zm-7.97-.76c-.1-.2-.52-.27-.9-.2-.88.24-6.6-1.43-6.8-1.97-.07-.27 1.26-1.4 3-2.55 1.75-1.14 5.7-4.37 8.8-7.2C18.38.98 18.73.7 19.03 1.16c.3.54-4.97 5.14-5.5 4.8-.27-.15-.35-.1-.2.15.27.46-6.6 6.7-9.82 8.86l-2.05 1.4 2.73.65c1.52.35 2.92.77 3.1.9.24.14.58.25.77.25.53 0 .72.73.27.88-.23.07-.5-.04-.6-.27z"/>
    <path id="p" fill-rule="evenodd" d="M.06 38.86c-.22-.38-.03-.5 3.88-2.05 1.3-.5 3.26-1.52 4.44-2.28 2.43-1.67 6.4-5.74 8.2-8.5.87-1.34 1.4-1.87 1.67-1.6.83.83-2.55 5.92-5.93 8.9-2.46 2.2-5.8 4.1-9 5.12-2.8.9-2.95.95-3.26.42zm28.85-.84c-.37-1 0-15.32.4-15.24.52.15.67 15.2.18 15.5-.23.16-.45 0-.57-.26zm-2.46-5.62c-.22-.46-.38-1.37-.34-2.02.04-.68.04-2.62 0-4.3-.04-2.8-.1-3.1-.83-3.3-.9-.23-.65-1.03.38-1.03.6 0 .64-.26.38-2.36-.16-1.34-.35-5.75-.42-9.8-.1-7.27-.1-7.46.77-8.68C27.4-.48 28-.3 28.65 1.6c.5 1.4.07 1.8-.76.7-.58-.77-.73-.8-1.08-.32-.22.3-.3 1.33-.2 2.3.13.94.28 7.47.4 14.54.1 7.04.3 13.08.4 13.35.35.87-.52 1.06-.98.23zm29.04-6.9l-4.17-.3-5.38-2.73c-3-1.48-6.15-3.38-7-4.18-1.54-1.45-1.58-1.45-1.35-3.66.1-1.2.34-2.5.45-2.85.15-.35.04-.73-.15-.88-.23-.12-.34-.42-.2-.6.16-.28 0-.28-.45-.05-.4.23-2.08.65-3.75.9l-3.04.55-.2 4.52c-.26 6.04-.9 6-1.05-.04-.12-4.94-.08-5.02 2-5.8l1.15-.43-1.18.23c-1.86.3-2.24-.73-1.7-4.38.03-.07.3.08.6.35.42.34.53.87.38 1.67l-.23 1.18h2c1.38 0 2 .15 1.95.45-.08.27.15.38.45.27.3-.12.5-.42.46-.65-.04-.3.53-.43 1.75-.35l1.83.15-.27-1.52c-.2-1.2-.07-1.67.57-2.32.7-.68 1.25-.8 4.14-.8 1.82 0 4.33.27 5.5.58 2.85.72 6.87 2.85 6.42 3.3-.24.23-1.08 0-2.25-.57-3.23-1.67-5.77-2.2-9.64-2.1l-3.56.13.1 1.52c.05.83-.02 1.78-.18 2.1-.1.3-.26 1.1-.3 1.7-.04.64-.23 2.16-.38 3.46l-.3 2.32 1.36 1.06c1.94 1.56 9.34 5.36 11.7 6.04 1.13.3 4.62.65 7.77.8l5.75.23-.3-1.98c-.46-2.77-2.5-6.95-4.87-9.73-1.06-1.3-1.78-2.43-1.6-2.54.54-.35 4.1 3.9 5.5 6.6 1.72 3.28 2.78 7.38 2.14 8.18-.53.65-3.23.7-10.44.15z"/>
    <path id="q" fill-rule="evenodd" d="M.02 20c-.26-.45 2-2.47 3.87-3.42 1.63-.83 3.48-.8 5.38.08.72.34 1.94.64 2.66.72.72.08 1.33.3 1.33.5 0 .72-2.5.64-4.1-.16-2.85-1.33-4.25-1.06-7.55 1.56-.76.6-1.48.9-1.6.72zm47.94-3.87c-3.68-4.4-10.32-8.2-16.02-9.2-1.44-.27-2.58-.6-2.58-.84.04-1.34 7 .03 11.43 2.2 2.38 1.17 3.86 2.24 5.68 4.06 2.77 2.82 3.76 4.37 3.2 4.95-.28.27-.85-.15-1.72-1.17zM44.8 6.7c-.14-.2-.07-.46.12-.57.2-.15.46-.08.57.1.15.2.07.47-.12.58-.2.17-.46.1-.57-.1zm-1.32-.95c-.34-.38-.34-.6-.04-.8.65-.38 1.4.46.92.95-.3.3-.57.23-.88-.15zm-26.2-4.72c-.48-.95.1-1.44.73-.6.35.38.4.68.13.95-.3.3-.53.2-.84-.35z"/>
  </defs>
</svg>
