<svg xmlns="http://www.w3.org/2000/svg" width="74" height="106" xmlns:xlink="http://www.w3.org/1999/xlink" xmlns:figma="http://www.figma.com/figma/ns"><desc>Created using Figma</desc><g style="mix-blend-mode:normal" figma:type="frame" filter="url(#a)" transform="translate(-363 -56)"><g style="mix-blend-mode:normal" figma:type="frame"><use fill="#FFF" xlink:href="#b" transform="translate(392.688 99.823)" style="mix-blend-mode:normal" figma:type="vector"/><use fill="#FFF" xlink:href="#c" transform="translate(384.918 90.927)" style="mix-blend-mode:normal" figma:type="vector"/><use fill="#FFF" xlink:href="#d" transform="translate(382.16 89.227)" style="mix-blend-mode:normal" figma:type="vector"/><use fill="#FFF" xlink:href="#e" transform="translate(381.915 79.24)" style="mix-blend-mode:normal" figma:type="vector"/><use fill="#FFF" xlink:href="#f" transform="translate(381.448 85.47)" style="mix-blend-mode:normal" figma:type="vector"/><use fill="#FFF" xlink:href="#g" transform="translate(381.34 66)" style="mix-blend-mode:normal" figma:type="vector"/></g><g style="mix-blend-mode:normal" figma:type="frame"><use fill="#FFF" xlink:href="#h" transform="translate(384.878 78.53)" style="mix-blend-mode:normal" figma:type="vector"/><use fill="#FFF" xlink:href="#i" transform="translate(385.032 74.29)" style="mix-blend-mode:normal" figma:type="vector"/><use fill="#FFF" xlink:href="#j" transform="translate(381.64 84.6)" style="mix-blend-mode:normal" figma:type="vector"/><use fill="#FFF" xlink:href="#k" transform="translate(397.055 79.316)" style="mix-blend-mode:normal" figma:type="vector"/><use fill="#FFF" xlink:href="#l" transform="translate(382.16 67.395)" style="mix-blend-mode:normal" figma:type="vector"/><use fill="#FFF" xlink:href="#m" transform="translate(395.385 66.547)" style="mix-blend-mode:normal" figma:type="vector"/></g><use fill="#FFF" xlink:href="#n" transform="translate(373.35 66.352)" style="mix-blend-mode:normal" figma:type="vector"/><g style="mix-blend-mode:normal" figma:type="frame"><use fill="#FFF" xlink:href="#o" transform="translate(397.977 133.816)" style="mix-blend-mode:normal" figma:type="vector"/><use fill="#FFF" xlink:href="#p" transform="translate(374.592 118.178)" style="mix-blend-mode:normal" figma:type="vector"/><use fill="#FFF" xlink:href="#q" transform="translate(379.997 101.84)" style="mix-blend-mode:normal" figma:type="vector"/><use fill="#FFF" xlink:href="#r" transform="translate(388.415 104.25)" style="mix-blend-mode:normal" figma:type="vector"/></g></g><defs><filter id="a" width="75" height="106" x="363" y="56" filterUnits="userSpaceOnUse" color-interpolation-filters="sRGB"><feFlood flood-opacity="0" result="BackgroundImageFix"/><desc>type=&quot;dropShadow&quot; x=&quot;0&quot; y=&quot;0&quot; size=&quot;10&quot; spread=&quot;0&quot; color=&quot;0,0,0,1&quot; blend=&quot;normal&quot;</desc><feColorMatrix in="SourceAlpha" values="0 0 0 0 0 0 0 0 0 0 0 0 0 0 0 0 0 0 255 0"/><feOffset/><feGaussianBlur stdDeviation="5"/><feColorMatrix values="0 0 0 0 0 0 0 0 0 0 0 0 0 0 0 0 0 0 1 0"/><feBlend in2="BackgroundImageFix" result="effect1_dropShadow"/><desc>type=&quot;dropShadow&quot; x=&quot;0&quot; y=&quot;0&quot; size=&quot;5&quot; spread=&quot;0&quot; color=&quot;0,0,0,1&quot; blend=&quot;normal&quot;</desc><feColorMatrix in="SourceAlpha" values="0 0 0 0 0 0 0 0 0 0 0 0 0 0 0 0 0 0 255 0"/><feOffset/><feGaussianBlur stdDeviation="2.5"/><feColorMatrix values="0 0 0 0 0 0 0 0 0 0 0 0 0 0 0 0 0 0 1 0"/><feBlend in2="effect1_dropShadow" result="effect2_dropShadow"/><feBlend in="SourceGraphic" in2="effect2_dropShadow" result="shape"/></filter><path id="b" fill-rule="evenodd" d="M8.7 6c-.12-.15-.07-.35.07-.43.13-.1.32-.06.4.08.1.14.06.34-.08.42-.14.1-.33.05-.4-.08zm-4.65-.9c-.3-.5.16-.8.73-.5.32.17.48.36.4.47-.3.28-.97.3-1.13.03zm8.93-.56c-.1-.13-.03-.5.18-.74.22-.25.38-.92.33-1.44-.04-.6.1-1.2.37-1.5.27-.3.32-.44.13-.36-.38.25-.75-.25-.38-.47.14-.1.5.1.76.47.27.36.73.72 1 .83.37.14.43.3.24.5-.22.22-.46.22-.84 0-.64-.36-.8-.06-.73 1.44.06.78-.08 1.1-.43 1.3-.32.2-.54.17-.64-.03zM.06 4.32c-.1-.14-.06-.33.08-.4.13-.12.32-.07.4.07.1.13.06.32-.08.4-.13.12-.32.06-.4-.08zm1.32-.02c-.1-.17-.08-.45.08-.6.16-.18.32-.18.46.04.1.17.08.44-.08.6-.16.18-.33.18-.46-.04zm3.83.08c-.1-.17 0-.5.2-.78.2-.3.43-.4.5-.22.12.17 0 .5-.18.78-.2.3-.43.38-.5.22zm-1-.5c-.23-.3-.26-.53-.07-.72.2-.2.38-.14.62.17.24.3.27.52.08.72-.2.2-.38.13-.62-.17zm4.5.17c-.12-.14-.07-.34.07-.42.13-.1.32-.06.4.08.1.15.06.35-.08.43-.14.1-.33.05-.4-.08zm3.5-.56c-.1-.15-.06-.34.07-.42.14-.1.33-.06.4.08.12.14.06.33-.07.4-.14.13-.33.07-.4-.07zm-8.9-.56c-.1-.14-.06-.33.1-.45s.22-.28.14-.42c-.08-.14-.03-.3.1-.4.14-.1.33-.04.4.1.12.13.06.33-.1.44-.16.1-.2.27-.13.4.1.15.03.32-.1.4-.14.1-.33.06-.4-.08zm5.9-.03c-.1-.16.05-.7.35-1.2.35-.65.46-1.03.27-1.23-.16-.16-.16-.33 0-.44.14-.08.6.22 1 .66.43.46.67.85.5.85-.12.03-.42.06-.64.1-.2 0-.5.3-.7.65-.4.86-.56.97-.78.6z"/><path id="c" fill-rule="evenodd" d="M24.04 11.78c-.65-.4-.33-.9.35-.53.55.3.58-.03.07-.97-.3-.55-.6-1.83-.73-3.27-.03-.4-.35-1.04-.67-1.4-.8-.9-.38-1.1.6-.33.47.4.77.94.85 1.58.08.74.38 2.77.5 3.57l.23.44c.32.5-.65 1.22-1.2.92zM7.88 11.6c-.27-.6-.05-1.87.32-1.87.22 0 .36.2.3.4-.05.24-.13.65-.13.9-.08.58-.33.9-.5.58zm11.54-.32c-.1-.14-.05-.33.1-.42.12-.1.3-.05.4.1.1.13.04.32-.1.4-.13.1-.3.06-.4-.08zm-5.4-.28c-.1-.14-.04-.33.1-.4.13-.12.3-.07.4.07.1.14.05.33-.1.42-.12.1-.3.04-.4-.1zm.55-.83c-.08-.14.03-.77.24-1.4.55-1.6.52-1.67-.37-1.4-.43.1-.86.17-.94.06-.1-.08-.44-.17-.8-.2-1.3-.1-.5-.55.95-.55 1.2 0 1.54-.08 1.5-.4-.1-.6 1.87-.57 2.4.04.34.4.36.58.12.9-.16.2-.27.5-.24.65.13.45-.43.42-.73-.05-.16-.28-.1-.56.22-.92.4-.5.4-.52-.1-.55-.4-.03-.52.08-.42.33.06.2-.02.5-.2.67-.23.16-.52.88-.7 1.55-.36 1.3-.66 1.7-.93 1.27zm-3.5-.55c-.1-.14-.06-.34.07-.42.14-.1.33-.05.4.08.12.14.06.34-.07.42-.14.1-.33.06-.4-.08zm16.55-.45c-.27-.33-.24-.44.16-.58l.7-.3c.44-.23.44.43-.02.85-.43.4-.54.4-.84.02zM7.22 9c-.04-.1.07-.3.26-.46.35-.3 1.26-.06 1.35.36.05.3-1.4.4-1.6.1zM5.5 8.44c-.32-1.06.24-2.64.68-1.92.1.15.05.35-.1.46-.12.08-.2.4-.15.7.07.3 0 .6-.15.68-.13.1-.24.14-.27.1zm15.5-.6c-.1-.3-.05-.62.12-.8.2-.2.35-.18.48.18.1.28.06.62-.1.78-.22.22-.36.2-.5-.16zm5.46-.15c-.1-.14-.06-.33.08-.42.13-.1.32-.05.4.1.1.12.06.32-.08.4-.13.1-.32.06-.4-.08zm1.75-.14c-.2-.22-.23-.47-.1-.55.17-.1.4 0 .57.2.2.23.22.48.1.56-.18.08-.42-.03-.58-.22zM8.6 7.37c-.1-.16-.02-.47.14-.7.2-.2.25-.4.14-.4-.14 0 0-.25.27-.56.46-.52.48-.52 1.54.04.55.3.96.66.88.8-.1.2-.35.17-.7 0-.27-.16-.52-.22-.52-.1 0 .07-.2.02-.4-.18-.22-.2-.4-.3-.43-.24l-.1.63c-.15.72-.58 1.1-.82.72zm-5.36-.52c-.1-.14-.05-.34.08-.42.14-.1.33-.05.4.08.12.15.06.35-.07.43-.14.1-.33.06-.4-.08zm15.08-.03c-.1-.17-.08-.44.08-.6.16-.18.32-.18.46.04.1.17.08.45-.08.6-.16.18-.33.18-.46-.04zM.36 6.72l-.08-.37C.25 6.2.18 6 .06 5.82-.2 5.38.5 4.46.9 4.72c.24.16.24.33-.08.7-.3.32-.36.54-.14.76.22.22.22.36 0 .47-.16.1-.32.14-.32.06zm4.2-.15c-.08-.17.08-.42.38-.58.33-.18.6-.18.7-.04.08.17-.08.42-.37.58-.33.17-.6.17-.7.03zm14.97-.44c-.32-.4-.2-.53.35-.45.14.03.78-.44 1.5-1.05.66-.6 1.33-1.02 1.5-.94.13.1-.06.43-.44.76-.37.34-.83.9-1.02 1.22-.16.36-.38.56-.46.47-.08-.08-.38-.02-.62.1-.35.2-.57.15-.8-.12zm8.52.16c-.1-.15-.05-.34.1-.42.12-.1.3-.06.4.08.1.14.04.33-.1.42-.13.1-.3.05-.4-.1zM6.18 6c-.2-.32.95-.87 1.32-.62.14.08.03.3-.24.52-.6.45-.86.45-1.08.1zm24.54-.37c-.27-.22-.37-.45-.24-.53.38-.25 1.5.3 1.32.6-.2.37-.48.37-1.08-.07zm-12.67-.2c-.1-.16-.27-.22-.4-.13-.14.08-.3.02-.4-.12-.1-.16.07-.4.34-.55.4-.22.6-.17.96.22.24.28.35.58.24.67-.24.27-.56.25-.75-.1zm9.47.03c-.1-.1.08-.44.35-.7.4-.38.54-.38.78-.07.43.5.08.82-.43.37-.3-.22-.38-.22-.25 0 .1.17.08.4-.05.47-.14.12-.32.06-.4-.08zM8.04 5.13c-.3-.5.16-.8.73-.5.32.17.5.36.4.47-.3.28-.97.3-1.13.03zm7.18.03c-.22-.14-.6-.2-.84-.14-.24.08-.73-.08-1.08-.4-.54-.43-.6-.63-.38-1.3.27-.74 1.25-1.16 1.2-.52-.04.17-.17.25-.33.2-.17-.06-.15.08.04.33.2.22.24.58.14.75-.1.2-.08.25.1.13.17-.07.38-.04.46.13.14.22.3.22.54 0 .46-.4.92-.17.84.4-.08.6-.27.7-.7.43zm16.18-.42c-.16-.22-.35-.55-.38-.75-.05-.2-.2-.67-.35-1.06-.54-1.36-.65-1.88-.35-2.08.16-.08.22-.27.13-.4-.08-.15-.02-.32.1-.4.15-.1.34-.06.42.08.1.14.05.33-.1.45-.17.07-.06.68.26 1.5.3.78.46 1.4.4 1.4-.08 0 .06.3.27.66.5.75.14 1.25-.4.58zm-30.3-.8C.8 3.5.75 3.2.94 3.08c.35-.25 1.13.05.94.36-.1.14.02.25.24.25.2 0 .32-.1.27-.2-.07-.12.14-.45.44-.73.32-.27.73-.85.94-1.3.33-.64.5-.72.92-.47.3.17.62.25.73.22.1-.05.24.03.27.14.02.14.35.47.75.78.38.33.62.66.54.8-.1.1.05.36.26.55.22.2.32.47.24.6-.08.14-.5-.08-.94-.5-.4-.4-.7-.83-.65-.94.1-.14-.04-.3-.28-.38-.22-.1-.33-.28-.25-.45.35-.6-.2-.22-1.88 1.25C2.5 3.9 1.67 4.6 1.6 4.6c-.05 0-.3-.3-.54-.66zm16.46-.06c-.08-.08-.08-.33-.02-.5.08-.2-.06-.52-.3-.72-.22-.2-.4-.6-.4-.9 0-.54-.03-.54-.52-.1-.3.28-.56.37-.67.2-.1-.14-.06-.36.1-.44.22-.14.22-.3 0-.56-.18-.22-.18-.4-.02-.52.13-.1.32-.06.4.05.08.13.54.2 1.03.2 1.2-.1 1.4.07.92.84-.5.72-.54 1.06-.2.84.44-.28.8.5.55 1.16-.22.6-.54.77-.87.44zM8.8 3.33c-.7-.5-.57-.97.27-.8.75.16 1.13.55.9.94-.23.4-.44.38-1.17-.14z"/><path id="d" fill-rule="evenodd" d="M18.76 5.4l-.1-.54c-.15-.75.26-.83.8-.22.27.3.43.55.38.58-.06 0-.33.06-.57.1-.27.07-.5.1-.5.07zm10.3-.43c-.35-.7.05-1.05.5-.44.26.28.28.5.1.7-.22.2-.38.13-.6-.26zm-2.83-.02c-.1-.14-.06-.34.1-.45.17-.1.22-.3.14-.44-.1-.14.03-.33.24-.42.26-.08.36-.27.28-.4-.08-.15.06-.35.3-.43.24-.1.38-.32.3-.5-.06-.2.02-.6.24-.87.2-.28.3-.67.2-.83-.15-.48.45-.8.8-.45.2.22.2.45-.08.78-.27.36-.27.44-.03.27.4-.24 1.76.6 1.55.95-.08.14-.5.05-.9-.14-.6-.32-.78-.32-1.07-.02-.33.33-.3.47.2.97.3.33.5.72.4.9-.12.18-.3.15-.58-.12-.35-.36-.48-.34-1 .2-.3.3-.56.65-.56.77 0 .36-.35.52-.5.25zM2.8 4.72c-.12-.16 0-.5.18-.77.22-.3.43-.4.5-.22.12.16 0 .5-.18.77-.2.3-.43.4-.5.22zm19.6-.5c-.65-.66-.68-.77-.3-1.33.38-.6 1.27-.86 1.27-.4 0 .12-.08.2-.2.17-.3-.02-.66.83-.48 1.14.1.18.37.26.62.23.24-.05.45.08.45.3 0 .7-.64.64-1.37-.1zm-8.82.25c-.08-.08-.08-.33 0-.55.08-.22.05-.4-.08-.36-.57.1-.7-.06-.38-.44.2-.23.24-.42.14-.42-.1 0-.06-.17.1-.4.25-.26.22-.43-.1-.7-.52-.45-.27-.84.45-.7.9.2 1.1.53.74 1.36-.27.58-.27.88-.02 1.27.27.45.24.58-.2.8-.26.17-.56.23-.64.14zm-2.48-.94c-.08-.1.03-.36.24-.52.27-.24.43-.22.7.12.2.22.3.4.24.44-.83.17-1.07.17-1.18-.03zm13.38-.1c-.25-.3-.22-.45.08-.7.32-.28.45-.22.67.2.43.82-.16 1.2-.75.5zm-8.74-.1c-.33-.3.37-.88.83-.7.4.15.4.1.1-.26-.26-.33-.3-.6-.07-1 .3-.58.94-.7 1.02-.2 0 .17-.08.26-.2.23-.33-.1-.3.4.02.6.16.12.18.3.1.48-.1.17-.05.22.1.1.4-.24.74.37.4.73-.2.2-.47.18-.82-.02-.38-.2-.62-.22-.73-.02-.2.33-.52.36-.76.08zM1.4 2.96c-.23-.33.18-.44 1.6-.42.76.03 1.36.17 1.36.3 0 .34-2.78.45-2.97.12zm8.54-.14c-.7-.5-.57-.96.27-.8.76.17 1.14.56.93.95-.25.42-.46.4-1.2-.14zM4.9 2.7c-.17-.28.02-.4 1.13-.64.8-.2 1.05.25.38.6-.67.4-1.3.4-1.5.04zM.04 2.45C-.16 2.12.36 1.8.7 2c.3.2.12.7-.25.7-.14 0-.3-.1-.4-.25z"/><path id="e" fill-rule="evenodd" d="M12.26 12.6l-.1-.52c-.14-.75.26-.83.8-.22.27.3.43.55.38.58-.06 0-.33.05-.57.1-.27.06-.48.1-.5.06zm2.9-.16c-.12-.14-.07-.33.07-.42.13-.1.32-.05.4.1.1.12.05.32-.08.4-.13.1-.32.06-.4-.08zm16.4 0c-.18-.33.33-.67.68-.45.3.2.1.7-.27.7-.13 0-.3-.12-.4-.26zm3.54 0c-.1-.14-.05-.33.08-.42.14-.1.33-.05.4.1.12.12.06.32-.07.4-.13.1-.32.06-.4-.08zm.68-.64c-.14-.36-.2-.75-.1-.86.15-.3.88.33.88.8 0 .67-.54.73-.78.06zm-28.43.14c-.1-.08-.05-.33.14-.55.15-.24.17-.37.04-.32-.13.06-.3-.03-.32-.2-.06-.13-.22-.4-.35-.58-.17-.2-.1-.44.13-.63.43-.36.86.05.57.55-.1.14 0 .5.24.78.4.4.4.55.1.8-.23.2-.47.25-.55.14zm14.27-.17c-.24-.2-.5-.52-.54-.74-.16-.84-.5-1.4-.84-1.4-.43 0-1.2-.9-1.2-1.43 0-.22.23-.64.53-.92.3-.27.46-.58.4-.72-.08-.1-.02-.27.1-.36.15-.1.33-.05.42.1.07.1.44.24.82.24.43 0 .6-.14.5-.34-.36-.52-.34-1.1 0-1.55.2-.22.3-.58.28-.75-.02-.2-.05-.47-.08-.6 0-.14-.46-.23-.97-.17-.54.03-1.08-.1-1.24-.33-.4-.47-.8-.47-.6.02.15.45-.3.84-.7.6-.23-.15-.23-.32 0-.57.23-.3.12-.36-.6-.33-.73.06-.87-.03-.8-.47.04-.28-.04-.42-.2-.33-.14.1-.33.05-.4-.1-.1-.13-.06-.32.1-.43.16-.12.22-.3.14-.43-.08-.1.05-.36.3-.55.6-.55 1 0 .64.97-.35.93-.22 1.1.5.7.36-.2.6-.2.7-.02.12.17.4.25.63.22.28-.05.45.1.4.28-.03.22.05.3.2.2.17-.12.25-.25.17-.34-.22-.25.38-1.22.65-1.05.13.07.2.46.1.82-.13.83 0 .86.7.14.6-.6 1.17-.53.9.14-.08.22-.06.64.08.9.32.76.35 1.56.05 1.95-.2.25-.16.5.16.86.47.5.47.56-.04.84-.3.17-.6.6-.65.97-.07.4-.04.65.1.6.3-.2.6.35.37.7-.1.15-.32.18-.5.07-.17-.1-.4-.22-.5-.25l-.32-.08c-.08 0-.03-.4.1-.83.17-.63.14-.85-.18-1-.5-.16-.43-.2-.9.65-.26.58-.24.74.3 1.32.33.37.68.6.8.53.36-.25.58.42.26.83-.22.28-.17.5.27.92.64.6.32 1.05-.38.52zm3.2.1c-.26-.48.33-1.04.68-.68.22.2.16.4-.1.63-.28.25-.44.25-.57.03zm-24.8-.3c-.2-.32 1.4-1.18 1.75-.96.16.12.2.3.13.43-.2.38-1.72.83-1.88.55zm15.5-.13c-.32-.4-.2-.53.35-.44.14.03.2-.1.14-.25-.05-.2-.2-.33-.34-.33-.43 0-.95-.53-.78-.8.08-.15.3-.17.45-.06.2.1.52.22.73.22.27 0 .4.28.4.77.03 1-.48 1.47-.94.9zm7.72.17c-.08-.13.02-.38.2-.55.44-.36.88.06.58.53-.22.33-.6.36-.78.03zm-13.06-.35c-.2-.22-.2-.42-.02-.67.24-.3.1-.33-.54-.25-.8.1-1.65-.47-1.14-.8.14-.1.33-.06.44.08.08.18.4.2.72.07.52-.2 1.46.08 1.84.52.08.08-.1.4-.43.77-.4.44-.62.53-.87.28zm8.44-.22c-.08-.14.1-.4.38-.56.54-.28 1.1.08.73.5-.27.28-.94.3-1.1.06zm7.12-.34c-.18-.37-.37-.76-.4-.92l-.13-.7c-.05-.22.1-.4.3-.4.68-.07.84.13.54.68-.2.4-.13.58.3.9.5.32.54.4.16.7-.35.3-.5.3-.76-.27z"/><path id="f" fill-rule="evenodd" d="M22.8 4.33c-.18-.48.82-1.6 1.23-1.36.43.25-.06 1.63-.6 1.72-.24 0-.54-.12-.62-.37zM2.68 4.27c-.1-.14-.06-.33.08-.42.13-.1.32-.05.4.1.1.13.06.32-.08.4-.13.1-.32.06-.4-.08zm10.87-.3c-.2-.14-.44-.2-.54-.12-.1.06-.27 0-.35-.13-.25-.36.56-.95.97-.7.2.14.54.25.75.25.54 0 .5.75-.03.83-.24.06-.6-.02-.8-.13zm22 0c-.1-.17-.08-.45.08-.6.17-.18.33-.18.46.04.1.18.08.45-.08.62-.16.17-.32.17-.46-.05zM3.5 3.5c-.1-.17 0-.5.2-.78.2-.3.42-.4.5-.22.1.16 0 .5-.18.77-.22.3-.44.4-.52.22zm14.57 0c-.1-.1-.06-.34.1-.53.22-.28.17-.33-.3-.25-.8.17-1-.6-.32-1.3.62-.67 1.3-.45.9.27-.2.33-.14.6.16.94.55.6.03 1.46-.53.85zm11.13-.25c-.24-.28-.26-.5-.08-.7.22-.22.38-.14.6.25.35.7-.06 1.05-.52.45zm-22.24-.4c-.27-.46.32-1.02.67-.66.22.2.16.4-.1.63-.28.25-.44.25-.57.03zM2.4 2.62c-.1-.16-.35-.2-.54-.13-.46.2-.8-.33-.43-.58.16-.12.43-.07.62.07.2.17.4.3.54.3.2.03.28.3.1.48-.1.08-.22.02-.3-.14zm6.47.04c-.08-.14.08-.48.35-.72.3-.28.6-.36.67-.23.08.13-.1.46-.36.7-.3.3-.6.37-.67.24zm1.6-.06c-.2-.3.93-1.14 1.26-.94.32.22-.2 1.02-.7 1.1-.25.03-.5-.05-.57-.16zm4.9.08c-.1-.08 0-.4.24-.7.4-.38.4-.54.12-.9-.2-.23-.3-.42-.24-.45.86-.15 1.1-.13 1.32.32.2.36.1.66-.4 1.22-.7.77-.76.8-1.03.52zm-3.26-.33c-.07-.1.1-.44.36-.7.4-.38.54-.38.78-.07.43.52.08.83-.43.38-.3-.22-.37-.22-.24 0 .1.17.1.4-.05.47-.12.12-.3.07-.4-.07zm21.7-.2c-.25-.27-.28-.5-.1-.7.22-.2.4-.12.6.26.35.7-.05 1.05-.5.44zM.1 1.44C-.03 1.05-.03.66.08.52.35.25.94.6.75.93c-.08.13-.02.3.14.4.3.2.1.7-.3.7-.14 0-.4-.28-.5-.6zm6.23.3l-.64-.26.74-.8c.84-.92 1.3-.9.95.05-.15.34-.26.72-.26.84-.02.38-.16.4-.8.16z"/><path id="g" fill-rule="evenodd" d="M13.9 21.02c-.15-.2-.26-.36-.2-.38.75-.17 1.37-.1 1.62.22.16.2.27.36.2.4-.74.15-1.36.07-1.6-.24zm10.6.1c-.3-.4.12-1.65.5-1.43.16.1.2.4.13.7-.1.3-.02.46.2.43.18 0 .37.1.42.25.08.4-.97.42-1.26.03zm5.06 0c-.14-.65-.06-1.3.13-1.34.3-.1.4 1.13.1 1.33-.1.1-.22.1-.24 0zm3.02-.48c-.35-.28-.8-.53-.97-.53-.18 0-.48-.16-.67-.38-.16-.22-.46-.36-.67-.27-.43.2-.78-.34-.4-.6.15-.1.45 0 .67.15.2.2.4.28.4.17 0-.28 2 .83 2.4 1.3.5.64-.03.75-.75.17zm-28.16-.1c-.4-.24-.73-.32-.73-.24 0 .1-.2-.02-.47-.22-.24-.22-.7-.4-1-.4-.32 0-.6-.1-.6-.26-.15-.47 1.52-.33 1.95.16.25.28.57.45.76.36.4-.16 1.4.6 1.05.8-.14.1-.58 0-.98-.2zm13.03-.57c-.35-.44 0-.77.43-.4.16.15.43.24.6.2.13-.05.23.04.23.2-.07.36-.96.4-1.25 0zm-3.62-.1c-.1-.15-.05-.34.08-.42.15-.12.34-.06.42.08.1.14.05.33-.08.4-.14.12-.33.07-.4-.07zm2.27-.73c-.2-.25-.4-.36-.5-.28-.07.1-.28 0-.47-.16-.22-.17-.54-.2-.84-.06-.28.14-.68.25-.9.25-.56-.04-.65-.6-.08-.65.27-.02.8-.1 1.2-.16.45-.07.9.04 1.07.26.26.3.4.3.8-.08.3-.28.5-.4.53-.36 0 .06.06.33.1.58.15.72-.5 1.17-.93.64zm19.3.22c-.07-.1.12-.47.44-.83s.54-.64.46-.66c-1.48-.28-2.5-.8-2.2-1.1.2-.23.55-.15 1.17.18.52.28 1 .47 1.1.45.12-.03.33.2.47.47.2.38.16.6-.2.9-.7.62-1.02.8-1.23.6zm-18.06-.58c-.08-.14.08-.47.38-.75.3-.27.54-.4.54-.27s.13.1.3-.06c.37-.4 1.7.36 1.42.8-.08.14-.4.1-.75-.16-.57-.36-.68-.36-1.16.16-.33.3-.62.45-.73.28zm3.18-.36c-.08-.14.06-.33.3-.42.24-.1.38-.36.3-.55-.22-.6.26-.7.75-.14.4.48.4.54 0 .9-.54.44-1.13.55-1.35.22zm8.77.17c-.04-.15-.04-.4 0-.54 0-.1-.1-.4-.26-.58-.13-.17-.3-.7-.32-1.14-.03-.44-.22-1-.43-1.27-.2-.25-.4-.6-.44-.83-.03-.2-.14-.5-.25-.7-.1-.16-.07-.38.07-.47.13-.1.32-.05.43.1.08.15.08.3 0 .3-.1 0 .1.4.46.88.32.5.62 1.02.65 1.2.06.57.46 1.5.63 1.5.08 0 .62-.3 1.16-.68 1.3-.9 1.55-.42.26.58-.54.45-1.22 1.05-1.46 1.36-.27.3-.5.45-.5.3zM.9 17.9c-.12-.14-.07-.33.07-.4.13-.12.32-.07.4.07.1.13.06.32-.08.4-.14.12-.33.06-.4-.08zm-.85-.3c-.27-.47.6-1.3.95-.95.18.2.1.45-.25.78-.37.33-.56.4-.7.17zm14.32.02c-.1-.13-.05-.33.1-.44.17-.1.23-.28.14-.4-.07-.15 0-.32.12-.4.14-.1.33-.06.4.08.12.14.06.33-.1.44-.16.1-.22.28-.14.42.1.14.03.3-.1.4-.14.1-.33.04-.4-.1zm-7.3-.3c-.3-.47.13-.9.56-.53.2.18.3.43.22.57-.2.33-.57.3-.8-.03zm8.65-.25c-.22-.34.84-1.23 1.2-1 .12.08.2.3.12.44-.27.4-1.16.83-1.32.55zm-3-.3c-.18-.32.33-.65.68-.43.3.2.1.7-.27.7-.13 0-.3-.12-.4-.26zm-10.78-.3c-.2-.3.94-.85 1.32-.6.14.08.03.3-.24.53-.6.44-.87.44-1.08.08zm31 0c-.1-.16-.07-.43.1-.6.16-.17.32-.17.45.05.1.17.07.45-.1.6-.15.18-.3.18-.45-.04zM6.8 16.24c-.06-.08.13-.4.43-.64.67-.62.64-.95-.06-1.34-.4-.2-.48-.38-.3-.58.2-.2.54-.1 1.1.3.77.56.82.7.52 1.23-.2.34-.33.73-.36.87 0 .3-1.18.44-1.35.16zm-3.4-.58c-.27-.55.13-1.03.43-.5.1.14.35.22.54.14.2-.07.56.04.86.24.54.44.57.44-.67.53-.63.05-.98-.1-1.16-.42zm15.7-1.16c-.28-.37-.25-.48.2-.73.65-.4.95 0 .5.63-.33.45-.38.45-.7.1zm14.4-.18c-.2-.33.32-.67.67-.44.3.2.1.7-.27.7-.14 0-.3-.12-.4-.26zm-31.45-.9c-.46-.87.1-1.26.64-.43.4.63.34 1.02-.1 1.02-.15 0-.36-.25-.55-.6zm18.5.32c-.08-.14.08-.4.38-.56.54-.27 1.1.1.72.5-.27.28-.94.3-1.1.06zM8.7 13.5c-.1-.15-.05-.34.1-.43.12-.1.3-.05.4.1.1.12.05.32-.1.4-.12.1-.3.06-.4-.08zm25.6-.04c-.1-.17-.08-.44.08-.6.17-.17.33-.17.46.05.1.17.08.45-.08.62-.16.16-.32.16-.46-.06zM5.45 12.9c-.1-.13-.1-.4.02-.6.1-.17.08-.22-.08-.14-.17.1-.44 0-.6-.2-.2-.22-.22-.47-.08-.55.3-.18 1.75 1.34 1.48 1.6-.24.27-.57.24-.75-.1zm4.42-.1c-.03-.1-.03-.42-.03-.72 0-.86.03-.86.6-.56.3.17.48.42.4.58-.1.14-.3.17-.46.1-.16-.12-.22-.07-.1.1.07.16.05.36-.12.47-.13.08-.26.1-.3.03zm20-.28c-.18-.22-.2-.47-.07-.56.16-.08.4.03.57.23.18.2.2.46.08.54-.17.08-.4-.03-.57-.22zM1.44 12.1c-.1-.14-.06-.33.08-.4.14-.12.33-.07.4.07.12.14.07.33-.07.42-.13.1-.32.04-.4-.1zm25.08 0c-.1-.14-.05-.33.1-.4.12-.12.3-.07.4.07.1.14.05.33-.1.42-.12.1-.3.04-.4-.1zm3.95-.2c-.6-.4-.6-.46-.17-.96.5-.55.98-.47.76.17-.1.28.1.42.75.48.48.05.88.22.88.36 0 .47-1.6.47-2.23-.03zm3.04-.07c-.1-.17.07-.42.37-.6.32-.15.6-.15.7 0 .08.15-.08.4-.38.57-.33.16-.6.16-.7.03zm-30.05-.7c-.2-.22-.22-.47-.08-.55.16-.08.4.03.56.22.2.22.22.47.1.56-.18.08-.42-.03-.58-.23zm7.4.1c-.15-.18.64-1.04.85-.87.2.14 1.97-.78 1.97-1.05 0-.13-.3-.55-.67-.88-.8-.7-.7-.94.32-.9.62.04.76.18.8.8.04.4.2.93.36 1.12.24.28-.03.53-1.27 1.14-1.8.86-2.17.97-2.36.66zm13.77-.4c-.38-.36-.7-.58-.7-.5 0 .08-.2 0-.4-.2-.22-.2-.4-.24-.4-.16 0 .1-.25.06-.55-.1-.3-.18-.48-.45-.38-.6.1-.16.37-.13.72.12.33.18 1.05.35 1.62.32 1.02-.05 1.5.22 1 .55-.22.14-.22.3 0 .56.56.7-.2.7-.92 0zm10.52.44c-.1-.14-.06-.33.08-.4.13-.12.32-.07.4.07.1.14.06.33-.08.42-.13.1-.32.05-.4-.1zM.9 11c-.2-.28.36-.75.85-.75.35.02.46.58.14.58-.15 0-.37.1-.55.22-.17.1-.38.08-.46-.05zm2.82-.7c-.2-.22-.22-.47-.08-.55.16-.08.4.03.56.22.2.22.22.47.1.55-.18.1-.42-.02-.58-.22zm4.26-.33c-.32-.36-.78-.6-.97-.55-.18.08-.4.02-.48-.14-.1-.14-.27-.2-.4-.1-.14.07-.3 0-.4-.15-.1-.17-.27-.22-.4-.14-.14.07-.3.02-.4-.12-.1-.14-.04-.33.1-.42.13-.1.32-.05.43.1.1.18.26.24.4.15.13-.07.3-.02.4.15.1.2.35.2.7 0 .63-.36.84-.25 1.6.83.7 1 .3 1.33-.57.4zm23.1-.1c-.18-.3 0-.4.47-.32.14.03.16-.08.06-.24-.26-.47.68-1.77 1-1.44.22.23.08.6-.43 1.3-.8 1.06-.86 1.1-1.1.7zm-16.3-.4c-.2-.22-.22-.47-.08-.55.16-.1.4.03.56.22.2.22.22.47.08.55-.16.08-.4-.03-.56-.23zm.9-.16c-.1-.16-.07-.44.1-.6.16-.17.32-.17.45.05.1.17.08.44-.08.6-.16.18-.32.18-.46-.04zm1.63-.27c-.07-.1.07-.36.28-.56.22-.2.35-.44.27-.55-.08-.14-.03-.3.1-.42.17-.08.4.12.58.42.4.75 1 .72.94-.06-.03-.36 0-.74.08-.9.1-.15.2-.65.22-1.1.08-.85.75-1.76 1-1.35.07.15 0 .62-.22 1-.22.43-.38.84-.4.9 0 .08-.03.16-.03.22-.03.03-.06.6-.08 1.3L20 9.17l-1.3.02c-.7.02-1.3-.06-1.4-.17zm4.08.03c-.1-.14-.05-.34.1-.42.12-.1.3-.06.4.08.1.14.04.34-.1.42-.13.1-.3.05-.4-.08zM3.1 8.83c-.22-.4-.08-1.05.2-1.05.15 0 .4-.1.55-.22.2-.1.46 0 .62.2.22.24.22.44.06.55-.14.12-.33.06-.43-.1-.1-.17-.3-.22-.43-.1-.14.07-.2.24-.1.37.07.14 0 .3-.12.4-.14.1-.3.08-.35-.04zm20.6-.13c-.24-.25-.24-.42 0-.72.3-.36.44-.78.6-1.72.08-.56.32-.64 1.02-.45.6.15.6.18-.2 1-.45.48-.77 1.12-.72 1.4.1.63-.3.9-.7.5zm3.35-.17c-.2-.3.97-1.16 1.75-1.3.73-.14.9.33.24.7-.3.16-.54.2-.54.13 0-.08-.3.05-.64.28-.38.24-.73.33-.8.2zM6 7.67c-.1-.14-.04-.33.1-.42.13-.1.32-.05.4.1.1.13.05.32-.08.4-.14.1-.33.06-.4-.08zm5.68-.22c-.1-.1-.6-.2-1.1-.2-.52-.02-.93-.13-.87-.3.1-.42 2.03-.4 2.35.03.3.36-.05.8-.37.47zm18.3-.06c-.07-.17.1-.42.4-.6.3-.15.58-.15.7-.02.07.17-.1.42-.4.6-.3.15-.58.15-.7 0zm2.97 0c-.08-.17-.27-.26-.4-.17-.1.08-.35-.06-.5-.25-.23-.25-.23-.45-.07-.56.14-.1.35-.02.43.14.12.14.37.22.58.14.46-.2.78.36.43.72-.15.17-.3.17-.45-.03zm-15.4-.7c-.1-.28-.05-.6.1-.77.23-.23.36-.2.5.16.1.27.05.6-.1.77-.23.22-.36.2-.5-.17zm11.12.14c-.1-.14-.06-.33.08-.42.13-.1.32-.05.4.1.1.13.06.32-.08.4-.13.1-.32.06-.4-.08zM13.35 6.4c-.1-.1-.14-.34-.06-.53.13-.33-.63-1.22-1.03-1.25-.43-.05-.32-.38.1-.47.25-.03.76.28 1.14.7.6.63.66.83.36 1.24-.2.24-.4.38-.5.3zm15.9-.34c-.13-.25-.1-.36.2-1.7.1-.5.32-.96.43-1.04.43-.25.54.6.22 1.44-.2.44-.36.9-.36 1-.05.33-.37.55-.48.3zM17 5.1c-.12-.2-.23-.56-.23-.78 0-.22-.1-.58-.2-.75-.15-.2-.15-.5-.07-.64.25-.38.76-.02.57.42-.05.2.03.5.2.66.15.18.18.32.07.32-.14 0-.08.16.08.4.22.24.22.43.05.54-.13.1-.35.03-.48-.17zm9.48.08c-.2-.34.33-.67.68-.45.3.2.1.7-.27.7-.15 0-.3-.1-.42-.25zm-17.53-.3c-.1-.17-.08-.45.08-.62.16-.16.33-.16.46.06.1.16.07.44-.1.6-.15.17-.3.17-.45-.05zm15.7.08c-.1-.17.05-.6.32-.95s.43-.8.38-.98c-.14-.42.38-.72.6-.36.1.16.05.47-.12.66-.16.2-.24.42-.18.47.08.05-.1.4-.36.77-.3.4-.57.52-.65.4zm3.2-.6c-.1-.15-.05-.35.1-.43.12-.1.3-.06.4.08.1.15.05.35-.1.43-.12.1-.3.05-.4-.08zm-17.1-.5c-.32-.2-.6-.32-.6-.2 0 .08-.17.02-.4-.17-.2-.2-.3-.46-.23-.62.08-.14.32-.1.56.1.22.17.6.37.8.4.58.08 1 .55.7.74-.15.12-.5-.02-.82-.25zm9.02.2c-.1-.13-.06-.32.08-.4.13-.12.32-.06.4.08.1.13.06.33-.08.4-.13.12-.32.07-.4-.07zm1.07 0c-.1-.13-.05-.32.1-.4.12-.12.3-.06.4.08.1.13.04.33-.1.4-.13.12-.3.07-.4-.07zm-7.98-.82c-.16-.33-.16-.6-.02-.72.16-.1.4.08.56.4.16.32.16.6.03.7-.16.1-.4-.08-.57-.38zm5.67-.17c-.44-.47-.54-.8-.38-.97.2-.2.48 0 .86.53.74 1.02.36 1.36-.47.44zm3.1.42c-.14-.23 1.1-1.4 1.5-1.4.63 0 .4.58-.42 1.08-.5.3-1 .45-1.07.3zm-7.26-1.37c-.1-.14-.05-.33.08-.42.14-.1.33-.04.4.1.12.14.06.33-.07.4-.14.12-.33.07-.4-.07zm-1.53-.22c-.1-.8-.1-1.1.1-1.54.1-.28.33-.42.5-.34.12.1.12.4-.04.72-.16.3-.2.67-.13.8.08.15.02.3-.14.42-.13.1-.3.1-.3-.05zm4.74-.08c-.1-.16-.08-.44.08-.6.16-.17.33-.17.46.05.1.17.08.44-.08.6-.16.18-.32.18-.46-.05zm7.04.03c-.1-.14-.05-.33.08-.4.14-.12.33-.07.4.07.1.14.06.33-.07.42-.14.1-.33.05-.4-.1zm1.08 0c-.1-.14-.05-.33.08-.4.14-.12.32-.07.4.07.1.14.06.33-.08.42-.13.1-.32.05-.4-.1zm-9.44-.27c-.1-.14-.05-.34.08-.42.14-.1.32-.06.4.08.1.14.06.34-.08.42-.13.1-.32.05-.4-.08zm-2.45-.3c-.1-.18-.08-.45.1-.62.15-.17.3-.17.45.06.1.16.08.44-.1.6-.15.17-.3.17-.44-.05z"/><path id="h" fill-rule="evenodd" d="M12.45 26.72c-.1-.13-.05-.33.08-.4.14-.12.33-.07.4.07.12.13.06.32-.07.4-.14.12-.33.06-.4-.08zm-.6-1c-.23-.63.28-1.1.68-.6.25.3.22.47-.1.74-.33.28-.44.25-.57-.13zm-2.12-.66c-.2-.36.32-.66.73-.4.16.1.2.07.13-.1-.12-.16.04-.5.34-.77.27-.26.43-.65.38-.84-.08-.2-.03-.45.13-.56.17-.08.4.1.54.47.18.53.05.78-.76 1.53-1.05.97-1.27 1.05-1.5.66zm7.04-.55c-.1-.13-.06-.33.08-.4.13-.12.32-.06.4.07.1.14.06.34-.08.42-.13.1-.32.05-.4-.1zm3.23 0c-.1-.13-.05-.33.08-.4.14-.12.33-.06.4.07.12.14.06.34-.07.42-.13.1-.32.05-.4-.1zm1.35-.55c-.1-.14-.05-.33.08-.4.14-.12.33-.07.4.07.12.14.06.33-.07.42-.14.1-.33.05-.4-.1zm-13.5-.3c-.12-.17-.1-.44.07-.6.16-.18.32-.18.46.04.1.16.08.44-.08.6-.16.17-.33.17-.46-.05zm9.48.08c-.05-.14.06-.64.27-1.16.27-.64.46-.86.65-.67.2.2.16.58-.13 1.17-.46.88-.6 1-.8.66zm5.9-.33c-.1-.14-.04-.33.1-.42.13-.1.3-.05.4.1.1.13.05.32-.1.4-.12.1-.3.06-.4-.08zm-8.9-.55c-.1-.14-.04-.34.1-.42.13-.1.3-.06.4.08.1.15.05.35-.1.43-.12.1-.3.05-.4-.08zm7.83-.28c-.1-.14-.05-.33.08-.42.14-.1.33-.05.4.1.1.12.06.32-.07.4-.14.1-.33.06-.4-.08zm-15.9-.53c-.1-.16.02-.4.2-.58.22-.2.46-.22.54-.08.08.16-.02.4-.2.58-.23.2-.47.22-.55.08zm4.84-.25c-.08-.1-.16-.7-.16-1.34 0-.66-.16-1.3-.32-1.44-.5-.4-1.3-.66-1.22-.4.03.1-.05.2-.2.24-.15.02-.25-.12-.2-.3.03-.2-.1-.54-.32-.7-.33-.28-.54-.25-1.06.1-.43.3-.72.34-.83.18-.12-.14.07-.42.37-.6.5-.26.45-.37-1.03-2.34-.84-1.1-1.67-2-1.86-1.94-.5.17-.73-.4-.24-.58.32-.14.35-.3.05-1.17-.47-1.3-.8-3.03-.8-3.92.06-2.1.33-4.24.6-4.52.16-.16.3-.4.3-.55 0-.1.38-.8.84-1.5C5.6.2 5.98-.1 6.14.05c.2.2.03.6-.46 1.28-1.9 2.57-2.07 7.34-.4 11.16 1.27 2.88 3.77 5.24 6.5 6.18 1.3.42 1.7 1.03.6.9-.58-.07-.63.04-.63 1 0 1.07-.27 1.6-.65 1.23zm-2.96-.62c-.1-.14-.06-.33.08-.4.13-.12.32-.07.4.07.1.14.06.33-.08.42-.13.1-.32.05-.4-.1zm9.17 0c-.1-.14-.05-.33.1-.4.12-.12.3-.07.4.07.1.14.05.33-.1.42-.12.1-.3.05-.4-.1zm9.6-.58c-.5-.44-.77-.86-.6-.94.12-.1.63.17 1.12.6 1.13 1.06.65 1.34-.5.34zm-21.46-.25c-.1-.14-.05-.33.08-.4.14-.12.32-.07.4.07.1.14.06.33-.08.4-.13.13-.32.07-.4-.07zm23 .14l-.08-.37c-.02-.14-.13-.36-.24-.55-.1-.17-.08-.4.08-.5.14-.1.3-.1.3-.03.03.08.05.25.08.4.03.1.13.32.24.5.1.18.08.4-.08.5-.13.1-.3.12-.3.04zm-14.67-.73c-.2-.4.43-.6 1.3-.44 1 .16 1.08-.1.24-.8-.58-.56-.66-.76-.42-1.17.4-.67 1.08-.64.97 0-.05.3.13.78.4 1.08.54.64 1.7.53 3.35-.36 1.16-.6 1.7-.25.67.44-1.53 1.03-6.1 1.9-6.5 1.25zm10.3-.2c-.26-.44 0-1.32.38-1.24.7.17.8.5.27 1-.27.25-.56.36-.64.25zm-22.78-.4c-.2-.2-.34-.26-.34-.15 0 .1-.24.08-.54-.08-.3-.17-.48-.42-.4-.58.1-.14.4-.1.75.08.33.2.68.33.8.36.3 0 .5.36.26.53-.14.08-.38 0-.54-.17zm1.7.05c-.1-.14-.12-.3-.04-.3.35-.1.6-.18 1.05-.4.3-.1.63-.08.8.1.2.2.18.35-.17.48-.24.12-.54.12-.62 0-.07-.08-.3-.02-.5.14-.22.2-.38.2-.5-.02zm2.4-.56c-.07-.14-.04-.28.07-.33.35-.2.9-.08.97.17.08.33-.84.47-1.03.16zm15.4.03c-.1-.15-.04-.34.1-.43.13-.1.32-.05.4.1.1.13.05.32-.08.4-.14.1-.33.06-.4-.08zm7-.32c-.08-.13-.08-.27.02-.27s0-.2-.2-.46c-.7-.8-1.06-1.7-.8-1.86.25-.17 1.14 1.03 1.22 1.6.03.17.14.45.24.64.1.17.08.4-.05.48-.14.1-.32.05-.43-.12z"/><path id="i" fill-rule="evenodd" d="M17.42 21.82c-.54-.6-.48-1.55.08-1.55.46 0 .95 1.52.62 1.86-.13.14-.43 0-.7-.3zm5.4.28c-.1-.14-.06-.33.08-.42.13-.1.32-.05.4.1.1.13.06.32-.08.4-.13.1-.32.06-.4-.08zm7 0c-.1-.14-.05-.33.1-.42.12-.1.3-.05.4.1.1.13.05.32-.1.4-.12.1-.3.06-.4-.08zm-8.92-.28c-.2-.36.86-.94 1.27-.7.16.12.2.1.13-.1-.1-.14.25-.83.8-1.5 1.12-1.35 2.3-3.8 2.44-5.04.1-.9.08-3.5 0-5.15-.05-.53-.3-1.3-.57-1.72-.3-.46-.4-.96-.3-1.35.1-.33.1-.52-.05-.44-.13.1-.86-.55-1.6-1.4-1.6-1.9-3.5-2.9-6.2-3.4-2-.4-2.45-.43-3.07-.2-.2.08-1.07.3-1.86.5-1.65.38-3.7 1.27-3.94 1.65-.08.14-.52.53-.95.84-.77.54-.8.54-1 .07-.07-.28-.4-.78-.66-1.08-.73-.84-.16-1.1.6-.26l.6.66 1.4-.97c.74-.5 1.53-1.08 1.74-1.24.33-.32.8-.4 3.3-.65C13.5.3 14.07.18 14.2.1c.42-.28 3.25.06 4.5.5 1.28.47 1.55.5 1.47.22-.05-.14.06-.25.2-.28.15-.05.26.03.26.2 0 .14.95 1.25 2.08 2.44l2.06 2.2.6-.82c.3-.44.67-.72.83-.64.12.12-.07.6-.44 1.1-.68.9-.68.98-.3 1.92.2.56.35 1 .27 1-.05 0 .08.3.3.67.24.37.4.78.37.9-.1.58.06 1.2.27 1.16.14-.06.22.05.2.2 0 .16-.12.24-.22.18-.27-.08-.3.25-.25 1.83.03.67-.13 1.58-.35 2.03-.2.44-.27.85-.13.94.13.1.05.47-.16.8-.25.36-.38.78-.35.9.06.13 0 .24-.1.24s-.57.58-1.03 1.3c-.86 1.3-2.5 3-2.96 3-.13 0-.3-.12-.4-.26zm-7.63-.64c-.43-.44-.4-1.46.03-1.85.48-.42.75-.08.56.66-.08.35-.02.7.14.82.32.2.16.7-.22.7-.1 0-.32-.14-.5-.34zm-11.76-.4c-.1-.15-.5-.23-.85-.23-.35-.03-.65-.14-.65-.28 0-.3 1.9-.36 2.08-.05.2.33-.3.8-.57.55zm29.4-.34c-.1-.14-.05-.34.1-.42.12-.1.3-.05.4.08.1.14.05.34-.1.42-.12.1-.3.06-.4-.08zm-15.12-.42c-.3-.22-.38-.44-.22-.53.16-.12.5 0 .76.2.3.2.37.43.2.52-.15.1-.47 0-.74-.2zm-7.23-.4c-.6-.65-.57-.96.08-1.57.57-.52.62-.44.57.6-.03.32.08.68.24.8.3.18.13.68-.24.68-.1 0-.4-.22-.65-.5z"/><path id="j" fill-rule="evenodd" d="M20.8 9.02c-.55-.64-.47-1.83.12-1.83.24 0 .38.18.33.46-.06.28.05.75.2 1.03.4.73-.07.96-.64.32zm-6.78-.14c-.4-.33-.43-.47-.2-.75.28-.27.47-.25.9.17.86.8.27 1.3-.7.58zm8.92-.17c-.45-.48-.45-.57-.02-1.23.5-.8 1-.72.78.14-.08.3 0 .73.16.92.27.36.16.75-.24.75-.1 0-.4-.25-.68-.56zm6.23.04c-.1-.14-.05-.33.1-.4.12-.12.3-.07.4.07.1.15.04.34-.1.43-.13.1-.3.05-.4-.1zM18.93 8.5c-.08-.17.02-.42.24-.62.32-.27.35-.44.08-.74-.5-.6-.5-1.36-.08-1.75.32-.3.43-.26.5.02.3 1.02.42 1.85.23 2.02-.1.1-.2.42-.2.64 0 .52-.53.8-.77.4zM7.6 8.2c-.1-.15-.05-.34.08-.43.13-.1.32-.05.4.1.1.12.06.32-.08.4-.13.1-.32.06-.4-.08zm17.3-.34c-.58-.34-.6-1.17-.07-1.64.33-.28.43-.25.57.17.08.3.24.7.38.96.37.74-.06 1-.87.5zm-9.24-.7c-.43-.66-.43-.75.03-1.24.53-.6.9-.47.72.3-.08.3 0 .72.16.92.27.36.16.74-.27.74-.07 0-.37-.33-.64-.72zm1.84.4c-.38-.54-.35-1.53.05-1.9.5-.4.84.17.43.67-.2.28-.2.47.1.72.23.2.33.45.25.58-.2.36-.54.3-.83-.08zm-7.18-.45c-.27-.27-.46-.63-.46-.8 0-.3 1.08-1.38 1.1-1.1.1.72.04 2.16-.07 2.27-.1.08-.33-.1-.58-.36zm3.75.26c-.1-.14-.05-.34.08-.42.14-.1.33-.05.4.08.12.14.06.34-.07.42-.14.1-.33.06-.4-.08zm19.15.02c-.08-.16-.5-.24-.92-.2-.4.07-.9-.04-1.1-.24-.22-.17-.43-.28-.5-.22 0 .03-.12.03-.2.03l-.4-.1c-.14 0-.28-.1-.28-.2v-.4c0-.1.2 0 .46.2.24.22.5.36.54.33.03-.05.1-.08.16-.05.03.02.5.05 1 .1.5.06.97.12 1.02.14.03.03.2.1.33.12.3 0 .4.4.2.6-.1.08-.23.02-.3-.12zm-20.87-.5c-.68-.47-.76-1.27-.2-1.77.33-.26.33-.4-.02-.96-.32-.52-.35-.77-.1-1.24.37-.75.88-.6.94.3.02.36.08.8.13.94.05.17 0 .7-.1 1.2-.14.58-.1 1.05.1 1.3.43.55-.08.74-.75.25zm8.87-.5c-.5-.6-.03-2.3.54-1.93.16.1.16.27 0 .5-.22.25-.14.5.24.86.54.5.5.97-.1.97-.22 0-.52-.16-.68-.38zm-7.63-.57c-.26-.58-.26-.8.12-1.16.4-.4.46-.4.6.08.1.28.26.73.4.97.13.24.16.55.08.63-.38.36-.92.14-1.2-.52zm9.48.03c-.4-.55-.24-1.7.27-1.7.27 0 .38.23.32.62-.05.33.06.67.22.78.3.2.1.7-.25.7-.14 0-.38-.2-.57-.4zm12.68-.4c-.17-.35-.17-.62-.03-.73.16-.1.4.08.56.38.16.34.16.6.02.73-.16.1-.4-.08-.56-.38zm-33.82 0c-.1-.15-.06-.35.08-.43.13-.1.32-.05.4.08.1.14.05.34-.08.42-.13.1-.32.06-.4-.08zm23.65-.1c-.4-.52-.36-1.52.04-1.88.5-.42.84.17.4.7-.24.3-.18.44.28.7.3.15.48.4.4.57-.24.36-.84.3-1.13-.1zM2.73 4.9c-.08-.18.03-.42.22-.6.22-.18.46-.2.54-.07.08.16-.03.4-.22.58-.2.2-.45.23-.54.1zm6.18-.34c-.4-.47-.43-.67-.16-1.28.43-.97.9-.72.97.53.05 1.26-.16 1.48-.8.76zm1.67.05c-.6-.65-.57-.96.07-1.57.57-.52.62-.44.57.6-.03.32.08.68.24.8.3.18.14.68-.24.68-.1 0-.4-.2-.65-.5zm4.77-.07c-.35-.4-.4-.7-.25-.97.35-.58.76-.6.84-.1.03.2.13.6.24.85.27.73-.27.87-.83.23zm19.06-.9c-.48-.54-.78-1-.62-1.1.15-.1.63.26 1.12.75.48.53.78 1 .62 1.08-.14.12-.62-.24-1.1-.74zm-16.96.32c-.43-.44-.4-1.2.03-1.58.46-.36.75-.14.54.42-.08.2 0 .54.16.76.5.6-.16.97-.73.4zm2.32-.64c-.23-.5-.23-.76.04-1.1.4-.5.87-.3.62.28-.08.25 0 .58.17.8.3.36.13.72-.3.72-.14 0-.35-.3-.54-.7zm2.2.3c-.73-.9-.48-2.45.27-1.95.22.14.2.3-.03.58-.27.33-.2.47.2.8.37.28.42.48.2.7-.2.22-.37.2-.64-.14zM3.82 3.5c-.08-.16.03-.4.22-.58.2-.2.46-.22.54-.08.08.17-.03.42-.22.58-.2.2-.46.22-.54.1zM.56 2.93c-.2-.33.32-.66.67-.44.3.2.1.7-.27.7-.13 0-.3-.12-.4-.26zm13.22-.58c-.4-.47-.44-.66-.2-1.24.33-.7.7-.9.98-.48.08.14-.03.56-.22.95-.24.47-.27.7-.05.66.34-.03.55.47.23.58-.13.07-.5-.15-.75-.46zm10.57.06c-.57-.64-.6-1.28-.08-1.7.43-.35.86.06.56.53-.1.17-.02.5.16.72.5.64-.1 1.08-.65.45zM5.17 2.1c-.1-.15-.05-.34.08-.42.14-.1.33-.06.4.08.12.14.06.33-.07.42-.14.1-.33.05-.4-.1zm10.3-.45c-.24-.58-.2-.78.2-1.25.56-.63.94-.5.75.28-.08.3 0 .72.16.9.16.24.22.5.1.57-.37.4-.9.16-1.2-.5zm16.7.4c-.6-.37-.35-.82.35-.62.27.08.94-.14 1.46-.45.53-.36 1-.5 1.07-.33.1.14-.35.58-1 .97-1.34.83-1.23.8-1.88.42zM.02 1.54C-.06 1.36.1 1.1.4.94.72.8 1 .8 1.1.94c.08.17-.08.4-.38.58-.32.18-.6.18-.7.04zm2.75-.2C1.75.78 2.12.28 3.15.8c.43.25.73.55.65.7-.2.32-.1.35-1.03-.18z"/><path id="k" fill-rule="evenodd" d="M1.87 6.52c-.25-.28-.4-.72-.3-.97.08-.25.05-.36-.08-.28-.15.08-.34.03-.44-.14C.96 4.97.8 4.9.66 5 .2 5.26-.22 4.07.1 3.46c.42-.75.8-.47.6.44-.07.5-.02.7.17.57.16-.1.38-.03.46.14.1.14.37.23.6.14.58-.25.96.1.58.56-.23.3-.2.5.15.88.24.28.35.6.24.7-.28.3-.52.22-1.03-.36zm3.3.05c-.55-.6-.6-1.2-.15-1.66.24-.24.24-.4 0-.65-.46-.48-.4-1.2.08-1.6.38-.34.38-.43 0-.84-.5-.57-.5-1.2-.05-1.63.46-.4.73-.1.73.72 0 .35.16.66.35.7.16 0 .5.04.73.04.2.03.37.28.35.58-.02.28.1.75.22 1 .33.64-.2.97-.73.5-.25-.2-.38-.64-.3-1 .08-.5.02-.58-.22-.36-.54.47-.65 1.6-.2 1.8.34.1.36.22.12.47-.4.42-.43 1.53-.05 1.75.3.2.1.7-.25.7-.1 0-.4-.23-.64-.5z"/><path id="l" fill-rule="evenodd" d="M21.54 17.97c-.33-.6.08-1.83.53-1.7.4.15.4 1.97 0 2.1-.16.07-.4-.13-.53-.4zM.6 17.07c-.26-.3-.34-.6-.2-.68.13-.1.45.07.7.35.26.3.34.6.2.7-.13.07-.45-.1-.7-.37zm11.5.1c-.68-.48-.8-1.28-.2-1.78.52-.45.92-.15.76.54-.08.3 0 .73.16.95.46.57-.05.76-.72.26zm1.48-.06c-.57-.63-.6-1.27-.05-1.7.48-.42 1.07-.1.7.38-.2.25-.17.53.1.9.62.93 0 1.3-.75.43zm4.56-.57c-.5-.56-.52-1.42-.03-1.47.33-.03 1.2 1.5 1.04 1.8-.2.33-.52.22-1-.33zm15.88-.42c-.3-.2-.38-.43-.2-.52.15-.1.47 0 .74.2.3.22.38.44.22.53-.16.12-.5 0-.76-.2zM.04 15.43c-.2-.33.32-.67.67-.44.3.2.12.7-.25.7-.14 0-.3-.12-.4-.26zm30.2-.03c-.07-.15.22-.45.65-.7.48-.25.86-.3.96-.14.1.14-.2.44-.64.7-.5.24-.87.3-.97.13zM2.2 14.85c-.2-.33.32-.66.67-.44.3.2.1.7-.27.7-.13 0-.3-.12-.4-.26zm1.35-.27c-.2-.34.32-.68.67-.46.3.2.1.7-.27.7-.13 0-.3-.1-.4-.25zm13.3-.34c-.6-.34-.65-1.45-.12-1.9.44-.38.8 0 .57.6-.08.2.03.57.24.77.25.2.35.44.27.58-.18.32-.4.32-.96-.04zm1.53-.25c-.4-.47-.43-.66-.2-1.27.33-.7 1.04-.66.77.03-.06.2.05.6.24.9.64.96-.04 1.23-.82.35zM2.55 13.8c-.62-.74-.78-1.1-.54-1.27.14-.07.5.23.82.67.62.86.38 1.42-.27.6zm29.88-.3c-.1-.14-.05-.33.08-.42.15-.1.34-.05.42.1.1.13.05.32-.08.4-.14.1-.33.06-.4-.08zm.54-.8c-.08-.17.03-.42.22-.6.2-.18.44-.2.53-.07.08.18-.03.43-.22.6-.2.2-.45.2-.53.08zm-27.5-.6c-.28-.3-.36-.6-.22-.68.13-.08.45.08.7.36.27.3.35.6.2.7-.12.08-.45-.1-.7-.37zm28.3-.54c-.1-.14-.04-.33.1-.42.13-.1.3-.05.4.1.1.13.05.32-.1.4-.12.1-.3.06-.4-.08zM.75 11.12c-.2-.22-.2-.47-.08-.55.16-.08.4.03.57.22.2.2.2.46.08.55-.15.08-.4-.03-.56-.23zm31.7-.7c-.12-.13-.06-.32.07-.4.15-.1.34-.06.42.08.1.14.05.33-.08.4-.14.13-.33.07-.4-.07zM3.3 9.9c-.24-.28-.43-.6-.37-.75.02-.14-.08-.53-.27-.86-.2-.36-.27-.64-.17-.64.08 0 .02-.16-.14-.38-.22-.28-.24-.45-.03-.6.14-.07.3-.1.3 0 .03.07.05.24.08.37.04.1.2.47.4.84.18.33.26.6.18.6-.1 0 .08.36.4.8.62.92.33 1.42-.38.62zm26.16 0c-.1-.14-.05-.33.1-.42.12-.1.3-.05.4.1.1.12.04.32-.1.4-.13.1-.3.06-.4-.08zm4.6 0c-.12-.14-.06-.33.07-.42.13-.1.32-.05.4.1.1.12.06.32-.08.4-.13.1-.32.06-.4-.08zM1.95 9.6c-.1-.14-.06-.33.08-.42.13-.1.32-.05.4.1.1.13.05.32-.08.4-.13.1-.32.06-.4-.08zm28.3-.83c-.1-.14-.04-.33.1-.42.13-.1.32-.05.4.1.1.13.05.32-.08.4-.14.1-.33.06-.4-.08zm-5.65-.25c-.15-.28.85-1.33 1.4-1.5.55-.16.36.36-.45 1.06-.43.36-.86.58-.94.44zm-18.36-.6c-.08-.15-.08-.3.03-.3.1 0-.08-.3-.4-.65-.33-.36-.5-.75-.35-.83.3-.17 1.2.77 1.3 1.35.07.5-.33.8-.58.4zm-2.4-.8c-.1-.15-.05-.35.08-.43.14-.12.33-.06.4.07.12.14.06.34-.07.42-.14.1-.33.05-.4-.1zm23.47-.57c-.1-.14-.05-.33.1-.4.12-.12.3-.07.4.07.1.14.05.33-.1.42-.12.1-.3.05-.4-.1zm4.32.03c-.08-.17.03-.4.22-.58.2-.2.46-.22.54-.08.08.16-.03.4-.22.58-.2.2-.46.22-.54.08zm-20.23-.3c-.1-.14-.06-.34.08-.42.13-.1.32-.06.4.08.1.14.05.34-.08.42-.14.1-.32.05-.4-.08zm5.66 0c-.1-.14-.06-.34.08-.42.13-.1.32-.06.4.08.1.14.06.34-.08.42-.13.1-.32.05-.4-.08zm1.62 0c-.1-.14-.06-.34.08-.42.13-.1.32-.06.4.08.1.14.06.34-.08.42-.13.1-.32.05-.4-.08zM28.63 6c-.2-.33.32-.67.67-.44.3.2.1.7-.27.7-.13 0-.3-.12-.4-.26zm1.35-.28c-.2-.33.32-.66.67-.44.3.2.1.7-.27.7-.13 0-.3-.12-.4-.26zM8.83 4.6c-.3-.6-.46-1.18-.32-1.23.28-.2 1.68 1.9 1.47 2.16-.36.33-.57.14-1.14-.94zm14.43.57c-.27-.45.35-1.83.68-1.5.16.17.16.53 0 1-.3.8-.44.9-.68.5zm4.86 0c-.1-.14-.06-.33.1-.45.17-.1.22-.27.14-.4-.08-.15-.03-.32.1-.4.14-.1.33-.05.4.08.12.14.07.34-.1.45-.16.1-.2.27-.13.4.08.15.03.32-.1.4-.14.1-.33.06-.4-.08zm-9.17-.28c-.1-.15-.06-.34.08-.42.13-.12.32-.06.4.08.1.14.06.33-.08.4-.13.12-.32.07-.4-.07zm-6.42-.18c-.08-.63-.14-.85-.33-1.3-.27-.6-.1-1.5.25-1.33.16.08.27.44.3.82 0 .4.1.9.2 1.08.14.2.1.5-.07.67-.16.17-.33.2-.35.05zm4-.38c-.12-.14-.07-.34.07-.42.13-.1.32-.05.4.08.1.14.06.34-.08.42-.13.1-.32.06-.4-.08zm9.67-.83c-.08-.16.08-.4.38-.58.32-.16.6-.16.7-.02.08.16-.08.4-.38.58-.32.16-.6.16-.7.03zM14.9 2.13c-1.4-1.47-1.37-2.22.03-.8.5.5 1 .88 1.1.86.1-.06.2 0 .2.13 0 .12.1.35.2.54.12.17.12.4-.02.47-.12.1-.8-.43-1.5-1.18zm4.53 1c-.13-.2-.56-.6-.97-.9-1.27-.8-.54-1 .78-.2.7.4 1.2.6 1.08.43-.1-.16 0-.44.2-.6.75-.64.66.2-.1.9-.64.64-.83.7-1 .37zM7.9 2.95c-.12-.14-.07-.33.07-.4.13-.13.32-.07.4.07.1.14.06.33-.08.4-.14.13-.33.07-.4-.07zm2.4-.1c-.28-.23-.4-.45-.25-.54.37-.24 1.5.32 1.32.62-.22.36-.5.36-1.08-.08zm14.04-.45c-.1-.14-.05-.34.08-.42.14-.1.32-.05.4.08.1.14.06.34-.08.42-.13.1-.32.06-.4-.08zm3.78 0c-.1-.14-.06-.34.08-.42.13-.1.32-.05.4.08.1.14.06.34-.08.42-.13.1-.32.06-.4-.08zM9.24 2.12c-.1-.14-.06-.33.08-.42.13-.1.32-.05.4.1.1.13.06.32-.08.4-.13.1-.32.06-.4-.08zm2.64-.97c-.1-.28-.05-.6.1-.78.22-.22.36-.2.5.17.1.28.05.6-.1.78-.23.22-.37.2-.5-.17zM22.45 1c-.1-.13-.05-.32.1-.43.14-.08.28-.08.28.03 0 .08.2.02.4-.17.22-.2.4-.25.4-.14 0 .1.17.05.4-.12.26-.22.42-.25.55-.03.08.14.1.3.03.3-.42.12-.7.2-.83.26-.08.03-.2.1-.32.12-.13.03-.35.14-.54.25-.15.1-.37.08-.45-.06zm-5.4-.27c-.1-.13-.05-.33.1-.4.12-.12.3-.07.4.07.1.14.05.33-.1.42-.12.1-.3.05-.4-.1z"/><path id="m" fill-rule="evenodd" d="M.06 1.03C-.04.9 0 .7.14.6.27.5.46.57.54.7c.1.13.06.33-.08.4-.13.12-.32.07-.4-.07zM3.3.75c-.1-.14-.06-.33.07-.4.14-.12.33-.07.4.07.12.14.06.33-.07.4-.14.13-.33.07-.4-.07zM2.2.47c-.1-.13-.04-.33.1-.4.13-.12.32-.07.4.07.1.14.05.33-.08.42-.14.1-.32.05-.4-.1z"/><path id="n" fill-rule="evenodd" d="M27.97 82.81c-.1-.26-.05-.6.1-.76.22-.22.36-.2.5.17.1.28.05.6-.1.78-.23.22-.36.2-.5-.17zm-3.13-2c-.2-.4-.08-.92.16-.92.33-.03.46.77.17.97-.14.08-.27.05-.33-.06zm.22-4.5c-.1-.13-.06-.33.08-.4.13-.12.32-.07.4.07.1.14.06.33-.08.42-.13.1-.32.04-.4-.1zm2.13-8.67c-.28-.66-.04-4.5.26-4.5.35 0 .5 4.28.16 4.64-.2.2-.32.14-.43-.14zM10.7 66c-.15-.28.17-.42.98-.4.38 0 .68.15.68.3 0 .3-1.46.38-1.65.1zm-3.44-.22c-.08-.14-.4-.2-.68-.1-.27.07-.6 0-.7-.18-.2-.4.54-.7 1-.42.2.14.57.23.8.25.28 0 .5.14.5.28.02.37-.73.54-.92.18zM.68 64.1c-.35-.07-.65-.26-.68-.43-.08-.4 1.16-.53 1.5-.17.45.45-.07.8-.82.6zm19.25-2.76c-.1-.14-.05-.33.1-.4.12-.12.3-.07.4.07.1.15.04.34-.1.43-.13.1-.3.05-.4-.1zm-7-.27c-.12-.14-.06-.34.07-.42.14-.1.33-.05.4.08.12.14.06.34-.07.42-.14.1-.33.05-.4-.08zm.8-.53c-.08-.17.03-.42.22-.58.2-.2.46-.22.54-.08.07.16-.04.4-.23.58-.22.2-.46.22-.54.08zm1.08-.86c-.26-.44.12-.9.58-.75.2.1.32.06.24-.08-.08-.1.08-.44.35-.7.92-.85.84 0-.08.92-.58.58-.98.8-1.1.6zm12.42-.83c-.1-.14-.06-.33.08-.42.13-.1.32-.05.4.1.1.13.06.32-.08.4-.13.1-.32.06-.4-.08zm-10.47-1.3c-.1-.14.16-.7.57-1.2.43-.52.83-.82.92-.66.08.13-.17.68-.6 1.18-.4.53-.8.8-.9.67zm8.55-.4c-.1-.16-.08-.43.08-.6.16-.17.33-.17.46.06.1.17.08.45-.08.62-.16.16-.32.16-.46-.06zm-14.8-.8c-.1-.13-.06-.33.08-.4.13-.12.32-.06.4.07.1.14.05.34-.08.42-.14.1-.32.06-.4-.08zm42.6-2.2c-.1-.15-.05-.34.1-.43.12-.1.3-.05.4.1.1.13.05.32-.1.4-.12.1-.3.06-.4-.08zm-38.56-1.37c-.08-.16.03-.4.22-.58.2-.2.45-.22.54-.08.08.16-.03.4-.22.58-.22.2-.46.22-.54.08zm8.1-.3c-.12-.14-.06-.33.07-.42.15-.1.34-.05.42.1.1.12.05.32-.08.4-.14.1-.33.06-.4-.08zm13.72-2.08c-.3-.22-.38-.44-.22-.53.16-.1.5 0 .76.2.3.22.38.44.2.52-.15.1-.47 0-.74-.2zm-17.5-.42c-.1-.13-.06-.33.08-.4.13-.12.32-.07.4.07.1.14.05.33-.08.42-.13.1-.32.05-.4-.1zm28.83-2.16c-1.6-1.44-3.1-2.43-5.25-3.54-1.05-.56-1.86-1.1-1.78-1.25.17-.28.62-.14 2.84.97 2.43 1.2 2.78 1.44 4.27 3 1.64 1.7 1.56 2.32-.08.82zm1.5-2.96c-.2-.22-.22-.47-.08-.56.16-.08.4.03.56.23.2.22.22.47.08.55-.16.08-.4-.03-.56-.22zm-20.93-.97c-.2-.34.32-.68.67-.45.3.2.1.7-.27.7-.13 0-.3-.12-.4-.26zm18.77-1.12c-.5-.44-.8-.86-.65-.94.13-.08.67.17 1.15.6.5.42.78.84.65.92-.14.1-.68-.16-1.16-.58zm-1.48-1.1c-.1-.15-.06-.34.08-.42.13-.1.32-.06.4.08.1.14.05.33-.08.42-.13.1-.32.05-.4-.1zM24.8 41.4c-.12-.14-.07-.34.07-.42.13-.1.32-.06.4.08.1.14.06.34-.08.42-.14.1-.33.05-.4-.08zm19.95-.28c-.1-.14-.06-.33.08-.42.13-.1.32-.05.4.1.1.12.06.32-.08.4-.13.1-.32.06-.4-.08zm-17.02-.92c-.33-.83-.03-1.74.54-1.74.73 0 .78.66.16 1.52-.46.58-.57.64-.7.22zm6.23-.47c-.1-.13-.06-.33.08-.4.13-.12.32-.07.4.07.1.14.06.33-.08.42-.13.1-.32.05-.4-.1zm-10.55-.58c-.28-.47.15-.88.58-.52.2.16.3.4.22.55-.2.33-.57.3-.8-.03zm.88-.72c-.08-.14.08-.55.32-.9.3-.4.57-.54.67-.37.1.14-.05.55-.32.9-.3.34-.57.5-.67.37zm-4.9-.4c-.1-.15.04-.35.3-.43.28-.08.77-.28 1.1-.4.93-.38 1.02.2.1.7-.95.5-1.27.53-1.5.14zm7.57-.3c-.54-.82-.22-1.32.37-.55.35.5.5.56.73.25.16-.2.33-.44.33-.55.02-.14.08-.22.16-.22h.3c.1 0 .05.16-.1.36-.18.16-.3.47-.3.6-.04.17-.12.28-.23.28-.12 0-.34.12-.53.23-.18.1-.48-.06-.72-.4zm5.26-.07c-.35-.36-.48-.72-.35-.84.14-.08.52.14.84.5.34.36.48.72.34.83-.13.1-.5-.13-.83-.5zm-10.38-.7c-.1-.14-.05-.33.08-.4.14-.12.33-.07.4.07.12.14.06.33-.07.42-.14.1-.33.05-.4-.1zm3.56-.47c-.27-.3.57-1.84.87-1.64.37.25.32.47-.22 1.2-.27.35-.57.54-.65.43zm5.07-.92c-.56-.58-.9-1.14-.78-1.22.16-.1.73.3 1.27.9.56.57.9 1.12.78 1.2-.16.12-.73-.3-1.27-.88zm5.1.6c-1.08-.57-1.78-1.2-1.6-1.5.06-.1.57.1 1.1.48.55.4 1.17.6 1.36.56.47-.2.7.27.28.6-.2.2-.56.17-1.13-.13zm-12.68-.08c-.3-.47.14-.88.57-.52.2.16.3.4.22.55-.2.33-.57.3-.8-.03zm13.25-.8c-.1-.14-.06-.33.08-.4.13-.13.32-.07.4.07.1.14.06.33-.08.4-.13.12-.32.07-.4-.07zm-19.26-.64c-.38-.38-.43-1.22-.08-1.44.13-.08.43.14.67.5.33.56.35.72.06.97-.24.2-.42.2-.64-.04zm16-.22c-.3-.47.13-.88.56-.52.2.16.3.4.2.55-.17.33-.55.3-.77-.03zm-13.33-.6c-.2-.48-.14-.73.2-1 .58-.48.93 0 .6.85-.34.9-.5.94-.8.13zm20.23.2c-.2-.2-.22-.46-.08-.54.16-.08.4.03.56.22.2.22.22.47.08.56-.16.08-.4-.03-.56-.23zm-21.17-.4c-.12-.14-.07-.33.07-.42.13-.1.32-.05.4.1.1.12.06.32-.08.4-.14.1-.33.06-.4-.08zm21.3-.83c-.12-.13-.06-.33.07-.4.14-.12.33-.06.4.07.12.14.06.34-.07.42-.14.1-.33.05-.4-.1zM16.96 32c-.1-.14-.06-.34.08-.45.16-.08.2-.33.13-.52-.2-.46.33-.82.57-.44.1.17.05.47-.1.67-.17.2-.22.4-.14.5.1.08.03.25-.13.33-.13.1-.32.05-.4-.08zm9.4-.03c-.07-.14-.04-.28.06-.33.35-.2.9-.1.97.16.1.33-.83.47-1.02.17zm10.37-.22c-.76-.5-.92-1.08-.27-.95.67.17 1.64.95 1.48 1.2-.2.33-.38.3-1.2-.25zm-23.58-.3c-.18-.37.46-.67 1.08-.53.25.02.44.22.44.36 0 .38-1.3.52-1.52.16zm26.44-.04c-.1-.17-.1-.4-.03-.48.08-.08.03-.33-.14-.55-.16-.2-.2-.36-.1-.36s.05-.16-.1-.38c-.23-.28-.26-.44-.04-.58.42-.28.72.05.66.75-.02.35.06.8.22.98.2.25.2.45 0 .64-.22.22-.35.2-.48-.03zm-7.18-.12c-.03-.08-.05-.25-.08-.36-.03-.14-.13-.36-.24-.55-.1-.17-.08-.4.08-.5.13-.08.3-.1.3-.03l.08.4c.02.1.13.32.24.52.1.16.08.38-.08.5-.14.08-.3.1-.3.02zm-21.1-.63c-.1-.17 0-.5.2-.78.22-.3.43-.4.5-.22.12.17 0 .5-.18.77-.2.3-.43.4-.5.23zm30.46-.6c-.08-.12-.43-.18-.8-.12-.36.08-.74 0-.82-.17-.24-.42.5-.7 1.13-.42.24.1.53.23.64.23.35.05.5.38.24.55-.13.1-.32.06-.4-.06zm1.32-.04c-.1-.16-.08-.43.08-.6.16-.17.33-.17.46.05.1.17.08.45-.08.6-.16.18-.32.18-.46-.04zm-30.72-.5c-.08-.16.03-.4.22-.57.2-.2.46-.22.54-.08.08.16-.03.4-.22.58-.2.2-.46.22-.54.08zm21.28-.05c-.1-.16-.08-.44.08-.6.16-.17.33-.17.46.05.1.17.08.44-.08.6-.16.18-.32.18-.46-.05zm-22-1.27c-.44-.55-.03-1.05.48-.6.24.18.76.35 1.13.35.38 0 .73.1.78.28.1.42-2.07.4-2.4-.02zm15.66-.53c-.35-.44-.16-1.38.25-1.13.32.22.56 1.24.3 1.4-.1.1-.36-.04-.55-.27zM11.8 26.57c-.12-.27-.06-.6.1-.77.2-.22.35-.2.48.16.1.28.06.6-.1.78-.22.22-.36.2-.5-.17zm10.24-.27c-.1-.28-.06-.6.1-.78.22-.22.36-.2.5.17.1.26.05.6-.12.76-.2.22-.35.2-.48-.16zm20 .13c-.1-.13-.04-.33.1-.4.13-.12.3-.07.4.07.1.14.05.33-.1.42-.12.1-.3.05-.4-.1zm1.84-.7c-.64-.46-1.43-.6-2.05-.32-.24.12-.6.15-.75.04-.43-.28 0-.75.5-.6.28.04.7-.04.95-.23.38-.3.63-.24 1.52.37.6.38 1 .8.9.94-.18.3-.45.3-1.07-.16zm-19.9-.13c-.1-.13-.05-.33.08-.4.14-.12.32-.07.4.07.1.14.06.33-.08.42-.13.1-.32.04-.4-.1zm12.4 0c-.1-.13-.05-.33.1-.4.12-.12.3-.07.4.07.1.14.05.33-.1.42-.12.1-.3.04-.4-.1zm-9.06-.55c-.16-.33-.16-.6-.02-.72.16-.08.4.08.56.4.17.32.17.6.03.7-.17.1-.4-.08-.58-.38zm-18.98-.28c-.4-.47-.35-.86.13-.86.35 0 .8 1.07.54 1.23-.1.1-.42-.08-.66-.36zm17.26.28c-.1-.14-.06-.33.08-.42.13-.1.32-.05.4.1.1.13.06.32-.08.4-.13.1-.32.06-.4-.08zm3.77-1.4c-.1-.12-.05-.32.08-.4.14-.1.33-.06.4.08.12.14.06.33-.07.42-.14.1-.33.05-.4-.1zm4.32-.82c-.12-.14-.07-.33.07-.4.13-.12.32-.07.4.07.1.14.06.33-.08.42-.14.1-.33.05-.4-.1zm-9.94-.22c-.18-.38-.08-.9.17-.9.32-.03.45.77.16.97-.15.08-.28.05-.34-.06zm-12.5-.46c-.28-.22-.6-.4-.7-.4-.15 0-.23-.1-.23-.18v-.33c0-.1.14-.06.3.1.16.17.46.26.65.2.37-.17 1.08.6.73.83-.13.1-.45-.03-.75-.22zm9.2.1c-.12-.15-.1-.43.07-.6.16-.16.32-.16.46.06.1.16.07.44-.1.6-.16.17-.32.17-.45-.05zm7.57-.5c-.1-.15-.06-.35.08-.43.14-.1.33-.05.4.1.12.13.06.33-.07.4-.14.12-.32.06-.4-.07zm2-.5c-.25-.26-.28-.48-.1-.68.23-.22.4-.14.6.25.35.7-.05 1.06-.5.45zm12.3.2c-.12-.13-.06-.32.07-.4.13-.12.32-.06.4.08.1.13.06.33-.08.4-.13.12-.32.07-.4-.07zm-29.65-.2c-.08-.07.03-.46.27-.84.3-.48.5-.6.73-.36.2.2.1.44-.27.83-.3.3-.6.5-.72.38zm28.75-.43c-.38-.63-.32-1.04.2-1.32.28-.17.53-.22.53-.14 0 .1.3-.05.64-.27.4-.28.7-.34.8-.17.18.25-.77.97-1.17.94-.52-.05-.8.28-.54.6.18.26.18.43 0 .54-.12.1-.34.02-.47-.17zm-19.37-.2c-.3-.48.14-.9.57-.54.2.17.3.42.22.56-.2.33-.57.3-.8-.03zm-6.98-1.37c-.1-.14-.05-.33.08-.4.14-.12.32-.07.4.07.1.14.06.33-.08.4-.13.13-.32.07-.4-.07zm-5.15-.3c-.3-.47.13-.9.56-.53.18.17.3.42.2.55-.18.34-.56.3-.77-.02zm15.64 0c-.1-.17-.08-.45.08-.6.16-.18.33-.18.46.04.12.17.1.45-.07.6-.16.18-.32.18-.46-.04zm4.88.02c-.1-.13-.05-.33.08-.4.14-.12.33-.07.4.07.12.14.06.33-.07.42-.14.1-.33.05-.4-.1zm7.28-.27c-.1-.14-.05-.33.1-.42.12-.1.3-.05.4.1.1.12.04.32-.1.4-.13.1-.3.06-.4-.08zm-13.6-.92c-.4-.4-.42-1.24-.04-1.47.34-.23.9 1.24.58 1.57-.1.1-.35.1-.54-.1zm20.05-.05c-.3-.2-.38-.44-.22-.52.17-.1.5 0 .76.2.3.22.38.44.22.52-.17.1-.5 0-.76-.2zm-36.14-.55c-.3-.22-.38-.44-.22-.52.17-.1.5 0 .76.2.3.2.38.43.22.52-.17.1-.5 0-.76-.2zm20.93 0c-.2-.22-.22-.47-.08-.55.15-.08.4.03.55.22.2.22.22.47.1.56-.18.08-.42-.03-.58-.23zm-2.02-.7c-.1-.13-.06-.32.08-.4.13-.12.32-.06.4.08.1.14.06.33-.08.4-.13.13-.32.07-.4-.07zm3.5 0c-.1-.13-.05-.32.08-.4.14-.12.33-.06.4.08.12.14.06.33-.07.4-.14.13-.33.07-.4-.07zm11.1-.04c-.34-.2-.85-.33-1.82-.5-.05-.02.35-.52.94-1.13 1.1-1.16 1.95-1.25.9-.08-.38.4-.5.74-.33.82.16.05.5.28.78.47.57.4.2.77-.46.4zm-29.7-.77c-.1-.14-.06-.33.07-.42.14-.1.33-.04.4.1.12.14.06.33-.07.4-.14.12-.33.07-.4-.07zm13.72-.58c-.1-.17-.08-.45.08-.6.16-.18.33-.18.46.04.12.16.1.44-.07.6-.16.17-.32.17-.46-.05zm1.65.03c-.1-.14-.06-.34.08-.42.13-.1.32-.06.4.08.1.14.06.34-.08.42-.13.1-.32.05-.4-.08zm1.88-.28c-.1-.14-.05-.33.08-.42.14-.1.33-.05.4.1.12.12.06.32-.07.4-.13.1-.32.06-.4-.08zm7-.58c-.12-.17-.1-.45.07-.6.16-.18.32-.18.46.04.1.17.08.45-.08.6-.16.18-.33.18-.46-.04zm-25.6-.53c-.1-.15-.06-.34.08-.42.13-.12.32-.06.4.08.1.14.05.33-.08.4-.14.12-.32.07-.4-.07zm7-1.37c-.07-.14.1-.47.36-.72.3-.26.6-.35.67-.2.08.13-.08.46-.35.7-.3.3-.6.37-.67.23zm25.4-.2c-.18-.2.55-1.8.88-1.8.5 0 .48.5-.1 1.23-.3.4-.66.7-.77.58zm-5.17-.35c-.08-.17.03-.42.22-.58.22-.2.46-.22.54-.1.07.18-.04.43-.23.6-.2.2-.45.22-.54.08zm-28.58-.3c-.1-.14-.06-.34.08-.42.13-.1.32-.06.4.08.1.14.06.33-.08.42-.13.1-.32.05-.4-.1zm33.17-.28c-.1-.14-.05-.34.08-.42.13-.1.32-.05.4.08.1.14.06.34-.08.42-.13.1-.32.06-.4-.08zm-30.5-.3c-.1-.17-.27-.23-.4-.15-.14.1-.3.03-.4-.1-.1-.15-.04-.34.1-.42.13-.1.32-.06.43.1.1.17.27.23.4.15.14-.1.3-.03.38.1.1.15.05.34-.08.42-.14.1-.33.06-.43-.1zm-2.4-.53c-.1-.14-.06-.34.08-.42.13-.1.32-.05.4.08.1.14.06.34-.08.42-.13.1-.32.05-.4-.08zm29.12.02c-.08-.17.03-.42.22-.6.2-.18.46-.2.54-.07.08.17-.03.4-.22.58-.2.2-.46.23-.54.1zm.8-1.14c-.1-.14-.04-.33.1-.42.13-.1.32-.05.4.1.1.12.05.32-.08.4-.14.1-.33.06-.4-.08zm-24.45-.2c-.14-.52-.06-1.22.15-1.2.16 0 .25.2.2.43-.06.2.02.35.13.32.1-.05.27.03.35.17.08.13-.08.26-.33.32-.27.03-.48 0-.5-.06zm16.9-.08c-.1-.14-.05-.33.08-.4.14-.13.33-.07.4.07.1.14.06.33-.07.4-.13.12-.32.07-.4-.07zm-17.83-.3c-.1-.17-.27-.23-.4-.14-.14.08-.3.03-.38-.1-.12-.15-.06-.35.07-.43.14-.1.33-.04.43.12.1.17.27.22.4.14.14-.08.3-.03.4.1.1.15.04.34-.1.43-.13.1-.32.04-.43-.12zm7.3-.53c-.1-.14-.04-.33.1-.42.13-.1.32-.05.4.1.1.13.05.32-.08.4-.15.1-.34.06-.42-.08zm-8.9-.28c-.1-.14-.04-.33.1-.4.13-.12.32-.07.4.07.1.14.05.33-.08.42-.15.1-.34.05-.42-.1zm24.23-.7c-.08-.2-.05-.57.06-.77.13-.2.24-.44.24-.55 0-.14.08-.22.2-.22.2 0 .23.08.18.5-.03.1-.03.38 0 .66.08.6-.5.9-.68.38zm-22.9-.43c-.27-.47.33-1.03.68-.67.2.22.16.42-.1.64-.28.26-.44.26-.58.04zm18.4.08c-.33-.3-.22-.6.32-.9.3-.15.6-.18.68-.04.18.3-.76 1.2-1 .94zm8.03-.36c-.08-.14-.05-.3.06-.36.3-.2 1.26-.06 1.42.2.2.3-1.3.46-1.5.16zm-22.08-.53c-.1-.14-.06-.33.08-.4.13-.12.32-.07.4.07.1.14.06.33-.08.42-.13.1-.32.05-.4-.1zm15.37-.27c-.16-.23.13-.56.84-.97.62-.37.6.32-.06.76-.35.25-.7.33-.78.2zm-.78-.78c-.1-.17 0-.5.2-.78.2-.3.42-.38.5-.22.1.17 0 .5-.2.78-.2.3-.42.4-.5.22zm-12.44-.6c-.1-.15-.05-.34.08-.42.14-.12.33-.06.4.08.12.14.06.33-.07.4-.13.12-.32.07-.4-.07zm8.1-.3c-.1-.12-.06-.32.08-.4.13-.1.32-.06.4.08.1.14.05.33-.08.42-.14.1-.32.05-.4-.1zm7.8 0c-.25-.4 2-1.5 2.36-1.15.2.2.06.36-.46.58-.4.15-.97.43-1.24.57-.32.16-.56.2-.67 0zm-12.12-.54c-.3-.33-.38-.58-.2-.72.28-.17.42 0 .36.44-.03.1.1.17.3.14.38-.03.62.47.27.58-.13.06-.45-.14-.72-.44zm-7.6-.14c-.1-.28-.06-.6.1-.77.22-.23.35-.2.5.16.1.27.04.6-.12.77-.22.22-.35.2-.5-.17zm6.52-.97c-.1-.14-.05-.33.08-.4.14-.12.33-.07.4.07.1.14.06.33-.07.4-.13.13-.32.07-.4-.07zm8.63-.28c-.1-.13-.05-.33.1-.44.14-.07.28-.07.28.04 0 .08.17.03.4-.14.26-.22.42-.25.55-.03.08.14.1.3.03.3-.08.04-.24.06-.35.1-.14.02-.35.13-.54.24-.17.12-.4.1-.47-.05zm2.02-.36c-.27-.73-.13-1.14.33-.98.38.12.5 1.22.2 1.45-.18.1-.4-.12-.53-.48zM25.05.66c-.1-.14-.05-.33.1-.42.12-.1.3-.05.4.1.1.13.05.32-.1.4-.12.1-.3.06-.4-.08zM20.7.3c-.17-.24-.12-.27.7-.3.3-.02.5.1.48.23-.1.33-1 .38-1.2.08z"/><path id="o" fill-rule="evenodd" d="M.73 17.46L0 16.68l.16-3.85c.08-2.13.24-4 .38-4.1.62-.7.73 1.47.3 5.7-.2 1.72-.14 1.97.35 2.45.6.6.8.63 1.5.24.35-.2.46-.52.4-1.16C2.83 12.8 2.37.78 2.5.4c.44-1.17.68.18.84 5.14.1 2.94.33 6.65.46 8.26l.25 2.88-.73.78c-.92.97-1.67.97-2.6 0z"/><path id="p" fill-rule="evenodd" d="M24.06 23.6c-.27-.73-.03-6.5.27-6.44.35.1.5 6.18.16 6.54-.2.2-.33.14-.44-.1zM7.53 14.25c-.8-.25-.65-.75.2-.73 1.66.1 2.7.28 2.76.53.07.33-2.06.44-2.97.2zm3.6-.03c-.2-.36-.04-.45 1.98-.97 4.4-1.17 6.64-4.68 8.24-12.9.16-.8.56-.15.5.8-.1 1.54-1.18 5.6-1.8 6.78-1.37 2.6-2 3.4-3.4 4.46-1.8 1.36-5.12 2.46-5.5 1.83zm-5.65-.56c-.08-.14-.38-.2-.65-.14C4.2 13.7.13 12.48 0 12.1c-.05-.2.9-1.03 2.13-1.86C3.37 9.4 6.18 7.04 8.4 5 13.05.7 13.3.5 13.5.85c.23.38-3.52 3.74-3.9 3.5-.2-.12-.24-.1-.13.1.2.33-4.7 4.87-7 6.45l-1.44 1.03 1.94.47c1.08.25 2.08.55 2.2.64.17.1.4.2.55.2.38 0 .5.52.2.63-.17.05-.36-.03-.44-.2z"/><path id="q" fill-rule="evenodd" d="M.05 28.32c-.17-.28-.03-.36 2.75-1.5.9-.36 2.32-1.1 3.15-1.66 1.73-1.22 4.56-4.18 5.83-6.2.62-.97 1-1.36 1.18-1.17.6.6-1.8 4.3-4.2 6.48-1.76 1.6-4.13 3-6.4 3.74-2 .66-2.1.7-2.3.3zm20.5-.6c-.28-.73 0-11.17.26-11.12.4.1.5 11.08.15 11.3-.17.12-.33 0-.4-.2zm-1.76-4.1c-.17-.34-.28-1-.25-1.48.02-.5.02-1.9 0-3.13-.03-2.04-.08-2.26-.6-2.4-.64-.17-.46-.75.27-.75.43 0 .46-.2.27-1.7-.12-.98-.25-4.2-.3-7.16-.1-5.3-.1-5.44.54-6.33.72-1.02 1.15-.9 1.6.5.36 1.02.07 1.3-.53.5-.4-.56-.5-.58-.74-.22-.16.22-.22.97-.14 1.66.08.7.2 5.47.27 10.62.07 5.12.2 9.53.3 9.72.23.64-.4.78-.7.17zM39.4 18.6l-2.97-.23-3.83-2c-2.13-1.07-4.36-2.46-4.96-3.04-1.1-1.05-1.13-1.05-.97-2.66.07-.88.23-1.83.3-2.08.12-.26.04-.53-.1-.64-.15-.1-.24-.3-.13-.45.1-.18 0-.18-.32 0-.3.15-1.48.46-2.67.65l-2.16.4-.13 3.3c-.2 4.4-.66 4.36-.77-.04-.08-3.6-.05-3.65 1.43-4.23l.8-.3-.83.16c-1.32.22-1.6-.53-1.2-3.2.02-.04.2.07.42.26.3.24.38.63.27 1.2l-.16.87h1.43c.96 0 1.4.1 1.36.33-.05.2.1.28.33.2.2-.1.34-.3.3-.47-.02-.22.4-.3 1.25-.25l1.3.1-.2-1.1c-.13-.9-.05-1.22.4-1.7.5-.5.9-.57 2.95-.57 1.3 0 3.08.2 3.9.42 2.04.53 4.9 2.08 4.57 2.4-.16.18-.75 0-1.6-.4-2.28-1.22-4.1-1.6-6.84-1.53l-2.54.08.07 1.1c.03.62-.02 1.3-.13 1.53-.08.23-.2.8-.22 1.26-.02.47-.16 1.58-.27 2.52l-.2 1.7.96.76c1.38 1.14 6.64 3.9 8.32 4.4.8.23 3.3.48 5.52.6l4.08.16-.22-1.44c-.32-2.03-1.78-5.07-3.45-7.1-.76-.94-1.27-1.77-1.13-1.85.37-.24 2.9 2.86 3.9 4.83 1.22 2.38 1.98 5.37 1.52 5.95-.38.48-2.3.5-7.42.12z"/><path id="r" fill-rule="evenodd" d="M.02 14.58c-.2-.33 1.42-1.8 2.75-2.5 1.16-.6 2.48-.58 3.83.06.5.25 1.37.47 1.88.53.52.05.95.22.95.36 0 .52-1.78.47-2.92-.1-2-.98-3-.8-5.35 1.12-.54.45-1.05.67-1.13.53zm34.06-2.83c-2.62-3.2-7.34-5.98-11.38-6.7-1.03-.2-1.84-.44-1.84-.6.03-.98 4.96.02 8.12 1.6 1.7.85 2.75 1.63 4.05 2.96 1.96 2.06 2.67 3.2 2.26 3.6-.2.2-.6-.1-1.22-.85zm-2.24-6.87c-.1-.14-.05-.33.08-.4.13-.12.32-.07.4.07.1.14.06.33-.08.42-.13.1-.32.05-.4-.1zm-.94-.7c-.25-.27-.25-.43-.03-.57.46-.27 1 .34.65.7-.22.22-.4.17-.62-.1zM12.3.76c-.36-.7.04-1.05.5-.44.24.3.27.5.08.7-.22.23-.38.14-.6-.25z"/></defs></svg>