<svg xmlns="http://www.w3.org/2000/svg" width="158" height="258" xmlns:xlink="http://www.w3.org/1999/xlink" xmlns:figma="http://www.figma.com/figma/ns"><g style="mix-blend-mode:normal;isolation:isolate"><use fill="#FFCE37" xlink:href="#a" transform="translate(7.813 .5)" style="mix-blend-mode:normal" figma:type="vector"/><use fill="#6FCF97" xlink:href="#b" transform="matrix(.51394 -.85782 .84144 .54035 -10 176.94)" style="mix-blend-mode:normal" figma:type="vector"/><use fill="#6FCF97" xlink:href="#c" transform="matrix(-.25056 -.9681 -.9636 .2673 163 232.358)" style="mix-blend-mode:normal" figma:type="vector"/><use fill="#482507" xlink:href="#d" transform="translate(32.29 25.863)" style="mix-blend-mode:normal" figma:type="vector"/><use fill="#6FCF97" xlink:href="#e" transform="translate(68.863 135.446)" style="mix-blend-mode:normal" figma:type="vector"/></g><defs><path id="a" fill-rule="evenodd" d="M67.6.8c.3-1 1.7-1 2 0L73 11.6l5-10.2c.5-1 2-.8 2 .3l2 11.7L88.5 4c.6-1 2-.6 2 .5V16l7.7-8c.7-1 2-.2 1.8.8l-1.6 11.7 9.2-7c1-.6 2 .2 1.7 1.3l-3.5 11 9.8-5.3c1-.5 2 .6 1.5 1.5l-5 10.4 11-3.6c1-.4 1.7.8 1 1.7l-6.6 9.4 11-2c1 0 1.7 1.2 1 2l-8 8H133c1 0 1.5 1.5.6 2l-9.2 7 11 2c1 0 1.3 1.5.4 2l-9.8 5 10.6 3.7c1 .3 1 1.8 0 2l-11 3.8 10.2 5.3c1 .5.7 2-.3 2l-10.8 1.8 9 6.8c.8.6.3 2-.7 2h-11.5l8 8.3c1 .8.2 2-.8 2l-11-2 6.6 9.3c.7 1 0 2-1 1.7l-11-3.6 5.3 10.7c.4 1-.6 2-1.5 1.5l-10-5.3 3.5 10.7c.3 1-.8 2-1.7 1.3l-9-6.8 1.7 11.6c.2 1-1 1.7-1.8 1l-8-8.3V137c0 1-1.3 1.5-2 .6l-6.5-9.2-1.7 11.4c-.2 1-1.5 1.3-2 .4L73 129.6l-3.4 11c-.3 1-1.7 1-2 0L64 130l-5 10c-.3 1-1.7 1-2-.2L55.4 128l-6.7 9.6c-.6 1-2 .4-2-.6v-11.4l-7.7 8c-1 .8-2 0-2-1l1.8-11.6-9.3 7c-.8.6-2-.2-1.6-1.3l3.3-11-9.8 5.3c-1 .5-2-.6-1.4-1.5l5.2-10.4-11 3.7c-1 .4-1.7-.8-1-1.7l6.5-9.4-11 1.8c-1 .2-1.6-1-1-2l8-8H4.4c-1 0-1.5-1.4-.7-2l9.2-7-11-1.8c-1.2 0-1.4-1.6-.4-2l9.8-5.2L.7 71.8c-1-.3-1-1.8 0-2l11-3.8-10.2-5.3c-1-.5-.7-2 .3-2l11-2-9-6.6c-1-.5-.5-2 .6-2h11.4l-8-8.3c-.8-.7-.2-2 1-1.8l10.8 1.7-6.5-9.2c-.5-1 .3-2 1.3-1.7L25 32.4l-5-10.6c-.6-1 .4-2 1.3-1.5l10 5.3L28 14.8c-.4-1 .7-2 1.5-1.3l9 6.8L37 8.7c-.2-1 1-1.7 1.8-1l8 8.3V4.5c0-1 1.4-1.5 2-.6l6.5 9L57 1.8c.2-1 1.6-1.3 2-.4l5.3 10.5 3.6-11zm34.7 35c-18.7-19.4-49-19.5-67.7-.2-18.6 19.3-18.5 50.7.2 70 18.8 19.5 49 19.6 67.7.3 18.7-19.4 18.6-50.8-.2-70.2z"/><path id="b" fill-rule="evenodd" d="M40.3 44.6L21 0 1.7 44.6c-5.6 13 3.3 27.2 17 28.7L21 17.8l2 55.5C37 72 46 57.6 40.3 44.6z"/><path id="c" fill-rule="evenodd" d="M40.6 44.3L21.2 0 1.7 44.3C-4 57 5 71.3 19 72.7l2-55 2.2 55c14-1.2 23-15.5 17.4-28.4z"/><path id="d" d="M88.2 45.7c0 25.2-19.7 45.6-44 45.6C19.6 91.3 0 71 0 45.7 0 20.4 19.7 0 44 0c24.5 0 44.2 20.4 44.2 45.7z"/><path id="e" fill-rule="evenodd" d="M0 5.8V122h15V5.4L12.6 0l-4 12.4c-.3 1-1.7 1-2 0L2.7.4 0 5.7z"/></defs></svg>
